<?xml version="1.0" encoding="utf-8" standalone="no"?>
<!DOCTYPE svg PUBLIC "-//W3C//DTD SVG 1.1//EN"
  "http://www.w3.org/Graphics/SVG/1.1/DTD/svg11.dtd">
<svg xmlns:xlink="http://www.w3.org/1999/xlink" width="720pt" height="576pt" viewBox="0 0 720 576" xmlns="http://www.w3.org/2000/svg" version="1.1">
 <metadata>
  <rdf:RDF xmlns:dc="http://purl.org/dc/elements/1.1/" xmlns:cc="http://creativecommons.org/ns#" xmlns:rdf="http://www.w3.org/1999/02/22-rdf-syntax-ns#">
   <cc:Work>
    <dc:type rdf:resource="http://purl.org/dc/dcmitype/StillImage"/>
    <dc:date>2024-01-12T14:28:17.138608</dc:date>
    <dc:format>image/svg+xml</dc:format>
    <dc:creator>
     <cc:Agent>
      <dc:title>Matplotlib v3.5.2, https://matplotlib.org/</dc:title>
     </cc:Agent>
    </dc:creator>
   </cc:Work>
  </rdf:RDF>
 </metadata>
 <defs>
  <style type="text/css">*{stroke-linejoin: round; stroke-linecap: butt}</style>
 </defs>
 <g id="figure_1">
  <g id="patch_1">
   <path d="M 0 576 
L 720 576 
L 720 0 
L 0 0 
z
" style="fill: #ffffff"/>
  </g>
  <g id="axes_1">
   <g id="patch_2">
    <path d="M 90 512.64 
L 648 512.64 
L 648 69.12 
L 90 69.12 
z
" style="fill: #ffffff"/>
   </g>
   <g id="matplotlib.axis_1">
    <g id="xtick_1">
     <g id="line2d_1"/>
     <g id="text_1">
      <!-- 0.35 -->
      <g style="fill: #262626" transform="translate(114.013569 529.817188)scale(0.18 -0.18)">
       <defs>
        <path id="DejaVuSans-30" d="M 2034 4250 
Q 1547 4250 1301 3770 
Q 1056 3291 1056 2328 
Q 1056 1369 1301 889 
Q 1547 409 2034 409 
Q 2525 409 2770 889 
Q 3016 1369 3016 2328 
Q 3016 3291 2770 3770 
Q 2525 4250 2034 4250 
z
M 2034 4750 
Q 2819 4750 3233 4129 
Q 3647 3509 3647 2328 
Q 3647 1150 3233 529 
Q 2819 -91 2034 -91 
Q 1250 -91 836 529 
Q 422 1150 422 2328 
Q 422 3509 836 4129 
Q 1250 4750 2034 4750 
z
" transform="scale(0.015625)"/>
        <path id="DejaVuSans-2e" d="M 684 794 
L 1344 794 
L 1344 0 
L 684 0 
L 684 794 
z
" transform="scale(0.015625)"/>
        <path id="DejaVuSans-33" d="M 2597 2516 
Q 3050 2419 3304 2112 
Q 3559 1806 3559 1356 
Q 3559 666 3084 287 
Q 2609 -91 1734 -91 
Q 1441 -91 1130 -33 
Q 819 25 488 141 
L 488 750 
Q 750 597 1062 519 
Q 1375 441 1716 441 
Q 2309 441 2620 675 
Q 2931 909 2931 1356 
Q 2931 1769 2642 2001 
Q 2353 2234 1838 2234 
L 1294 2234 
L 1294 2753 
L 1863 2753 
Q 2328 2753 2575 2939 
Q 2822 3125 2822 3475 
Q 2822 3834 2567 4026 
Q 2313 4219 1838 4219 
Q 1578 4219 1281 4162 
Q 984 4106 628 3988 
L 628 4550 
Q 988 4650 1302 4700 
Q 1616 4750 1894 4750 
Q 2613 4750 3031 4423 
Q 3450 4097 3450 3541 
Q 3450 3153 3228 2886 
Q 3006 2619 2597 2516 
z
" transform="scale(0.015625)"/>
        <path id="DejaVuSans-35" d="M 691 4666 
L 3169 4666 
L 3169 4134 
L 1269 4134 
L 1269 2991 
Q 1406 3038 1543 3061 
Q 1681 3084 1819 3084 
Q 2600 3084 3056 2656 
Q 3513 2228 3513 1497 
Q 3513 744 3044 326 
Q 2575 -91 1722 -91 
Q 1428 -91 1123 -41 
Q 819 9 494 109 
L 494 744 
Q 775 591 1075 516 
Q 1375 441 1709 441 
Q 2250 441 2565 725 
Q 2881 1009 2881 1497 
Q 2881 1984 2565 2268 
Q 2250 2553 1709 2553 
Q 1456 2553 1204 2497 
Q 953 2441 691 2322 
L 691 4666 
z
" transform="scale(0.015625)"/>
       </defs>
       <use xlink:href="#DejaVuSans-30"/>
       <use xlink:href="#DejaVuSans-2e" x="63.623047"/>
       <use xlink:href="#DejaVuSans-33" x="95.410156"/>
       <use xlink:href="#DejaVuSans-35" x="159.033203"/>
      </g>
     </g>
    </g>
    <g id="xtick_2">
     <g id="line2d_2"/>
     <g id="text_2">
      <!-- 0.40 -->
      <g style="fill: #262626" transform="translate(187.434622 529.817188)scale(0.18 -0.18)">
       <defs>
        <path id="DejaVuSans-34" d="M 2419 4116 
L 825 1625 
L 2419 1625 
L 2419 4116 
z
M 2253 4666 
L 3047 4666 
L 3047 1625 
L 3713 1625 
L 3713 1100 
L 3047 1100 
L 3047 0 
L 2419 0 
L 2419 1100 
L 313 1100 
L 313 1709 
L 2253 4666 
z
" transform="scale(0.015625)"/>
       </defs>
       <use xlink:href="#DejaVuSans-30"/>
       <use xlink:href="#DejaVuSans-2e" x="63.623047"/>
       <use xlink:href="#DejaVuSans-34" x="95.410156"/>
       <use xlink:href="#DejaVuSans-30" x="159.033203"/>
      </g>
     </g>
    </g>
    <g id="xtick_3">
     <g id="line2d_3"/>
     <g id="text_3">
      <!-- 0.45 -->
      <g style="fill: #262626" transform="translate(260.855674 529.817188)scale(0.18 -0.18)">
       <use xlink:href="#DejaVuSans-30"/>
       <use xlink:href="#DejaVuSans-2e" x="63.623047"/>
       <use xlink:href="#DejaVuSans-34" x="95.410156"/>
       <use xlink:href="#DejaVuSans-35" x="159.033203"/>
      </g>
     </g>
    </g>
    <g id="xtick_4">
     <g id="line2d_4"/>
     <g id="text_4">
      <!-- 0.50 -->
      <g style="fill: #262626" transform="translate(334.276727 529.817188)scale(0.18 -0.18)">
       <use xlink:href="#DejaVuSans-30"/>
       <use xlink:href="#DejaVuSans-2e" x="63.623047"/>
       <use xlink:href="#DejaVuSans-35" x="95.410156"/>
       <use xlink:href="#DejaVuSans-30" x="159.033203"/>
      </g>
     </g>
    </g>
    <g id="xtick_5">
     <g id="line2d_5"/>
     <g id="text_5">
      <!-- 0.55 -->
      <g style="fill: #262626" transform="translate(407.69778 529.817188)scale(0.18 -0.18)">
       <use xlink:href="#DejaVuSans-30"/>
       <use xlink:href="#DejaVuSans-2e" x="63.623047"/>
       <use xlink:href="#DejaVuSans-35" x="95.410156"/>
       <use xlink:href="#DejaVuSans-35" x="159.033203"/>
      </g>
     </g>
    </g>
    <g id="xtick_6">
     <g id="line2d_6"/>
     <g id="text_6">
      <!-- 0.60 -->
      <g style="fill: #262626" transform="translate(481.118832 529.817188)scale(0.18 -0.18)">
       <defs>
        <path id="DejaVuSans-36" d="M 2113 2584 
Q 1688 2584 1439 2293 
Q 1191 2003 1191 1497 
Q 1191 994 1439 701 
Q 1688 409 2113 409 
Q 2538 409 2786 701 
Q 3034 994 3034 1497 
Q 3034 2003 2786 2293 
Q 2538 2584 2113 2584 
z
M 3366 4563 
L 3366 3988 
Q 3128 4100 2886 4159 
Q 2644 4219 2406 4219 
Q 1781 4219 1451 3797 
Q 1122 3375 1075 2522 
Q 1259 2794 1537 2939 
Q 1816 3084 2150 3084 
Q 2853 3084 3261 2657 
Q 3669 2231 3669 1497 
Q 3669 778 3244 343 
Q 2819 -91 2113 -91 
Q 1303 -91 875 529 
Q 447 1150 447 2328 
Q 447 3434 972 4092 
Q 1497 4750 2381 4750 
Q 2619 4750 2861 4703 
Q 3103 4656 3366 4563 
z
" transform="scale(0.015625)"/>
       </defs>
       <use xlink:href="#DejaVuSans-30"/>
       <use xlink:href="#DejaVuSans-2e" x="63.623047"/>
       <use xlink:href="#DejaVuSans-36" x="95.410156"/>
       <use xlink:href="#DejaVuSans-30" x="159.033203"/>
      </g>
     </g>
    </g>
    <g id="xtick_7">
     <g id="line2d_7"/>
     <g id="text_7">
      <!-- 0.65 -->
      <g style="fill: #262626" transform="translate(554.539885 529.817188)scale(0.18 -0.18)">
       <use xlink:href="#DejaVuSans-30"/>
       <use xlink:href="#DejaVuSans-2e" x="63.623047"/>
       <use xlink:href="#DejaVuSans-36" x="95.410156"/>
       <use xlink:href="#DejaVuSans-35" x="159.033203"/>
      </g>
     </g>
    </g>
    <g id="xtick_8">
     <g id="line2d_8"/>
     <g id="text_8">
      <!-- 0.70 -->
      <g style="fill: #262626" transform="translate(627.960938 529.817188)scale(0.18 -0.18)">
       <defs>
        <path id="DejaVuSans-37" d="M 525 4666 
L 3525 4666 
L 3525 4397 
L 1831 0 
L 1172 0 
L 2766 4134 
L 525 4134 
L 525 4666 
z
" transform="scale(0.015625)"/>
       </defs>
       <use xlink:href="#DejaVuSans-30"/>
       <use xlink:href="#DejaVuSans-2e" x="63.623047"/>
       <use xlink:href="#DejaVuSans-37" x="95.410156"/>
       <use xlink:href="#DejaVuSans-30" x="159.033203"/>
      </g>
     </g>
    </g>
    <g id="text_9">
     <!-- Gelability -->
     <g style="fill: #262626" transform="translate(321.670313 552.7575)scale(0.2 -0.2)">
      <defs>
       <path id="DejaVuSans-47" d="M 3809 666 
L 3809 1919 
L 2778 1919 
L 2778 2438 
L 4434 2438 
L 4434 434 
Q 4069 175 3628 42 
Q 3188 -91 2688 -91 
Q 1594 -91 976 548 
Q 359 1188 359 2328 
Q 359 3472 976 4111 
Q 1594 4750 2688 4750 
Q 3144 4750 3555 4637 
Q 3966 4525 4313 4306 
L 4313 3634 
Q 3963 3931 3569 4081 
Q 3175 4231 2741 4231 
Q 1884 4231 1454 3753 
Q 1025 3275 1025 2328 
Q 1025 1384 1454 906 
Q 1884 428 2741 428 
Q 3075 428 3337 486 
Q 3600 544 3809 666 
z
" transform="scale(0.015625)"/>
       <path id="DejaVuSans-65" d="M 3597 1894 
L 3597 1613 
L 953 1613 
Q 991 1019 1311 708 
Q 1631 397 2203 397 
Q 2534 397 2845 478 
Q 3156 559 3463 722 
L 3463 178 
Q 3153 47 2828 -22 
Q 2503 -91 2169 -91 
Q 1331 -91 842 396 
Q 353 884 353 1716 
Q 353 2575 817 3079 
Q 1281 3584 2069 3584 
Q 2775 3584 3186 3129 
Q 3597 2675 3597 1894 
z
M 3022 2063 
Q 3016 2534 2758 2815 
Q 2500 3097 2075 3097 
Q 1594 3097 1305 2825 
Q 1016 2553 972 2059 
L 3022 2063 
z
" transform="scale(0.015625)"/>
       <path id="DejaVuSans-6c" d="M 603 4863 
L 1178 4863 
L 1178 0 
L 603 0 
L 603 4863 
z
" transform="scale(0.015625)"/>
       <path id="DejaVuSans-61" d="M 2194 1759 
Q 1497 1759 1228 1600 
Q 959 1441 959 1056 
Q 959 750 1161 570 
Q 1363 391 1709 391 
Q 2188 391 2477 730 
Q 2766 1069 2766 1631 
L 2766 1759 
L 2194 1759 
z
M 3341 1997 
L 3341 0 
L 2766 0 
L 2766 531 
Q 2569 213 2275 61 
Q 1981 -91 1556 -91 
Q 1019 -91 701 211 
Q 384 513 384 1019 
Q 384 1609 779 1909 
Q 1175 2209 1959 2209 
L 2766 2209 
L 2766 2266 
Q 2766 2663 2505 2880 
Q 2244 3097 1772 3097 
Q 1472 3097 1187 3025 
Q 903 2953 641 2809 
L 641 3341 
Q 956 3463 1253 3523 
Q 1550 3584 1831 3584 
Q 2591 3584 2966 3190 
Q 3341 2797 3341 1997 
z
" transform="scale(0.015625)"/>
       <path id="DejaVuSans-62" d="M 3116 1747 
Q 3116 2381 2855 2742 
Q 2594 3103 2138 3103 
Q 1681 3103 1420 2742 
Q 1159 2381 1159 1747 
Q 1159 1113 1420 752 
Q 1681 391 2138 391 
Q 2594 391 2855 752 
Q 3116 1113 3116 1747 
z
M 1159 2969 
Q 1341 3281 1617 3432 
Q 1894 3584 2278 3584 
Q 2916 3584 3314 3078 
Q 3713 2572 3713 1747 
Q 3713 922 3314 415 
Q 2916 -91 2278 -91 
Q 1894 -91 1617 61 
Q 1341 213 1159 525 
L 1159 0 
L 581 0 
L 581 4863 
L 1159 4863 
L 1159 2969 
z
" transform="scale(0.015625)"/>
       <path id="DejaVuSans-69" d="M 603 3500 
L 1178 3500 
L 1178 0 
L 603 0 
L 603 3500 
z
M 603 4863 
L 1178 4863 
L 1178 4134 
L 603 4134 
L 603 4863 
z
" transform="scale(0.015625)"/>
       <path id="DejaVuSans-74" d="M 1172 4494 
L 1172 3500 
L 2356 3500 
L 2356 3053 
L 1172 3053 
L 1172 1153 
Q 1172 725 1289 603 
Q 1406 481 1766 481 
L 2356 481 
L 2356 0 
L 1766 0 
Q 1100 0 847 248 
Q 594 497 594 1153 
L 594 3053 
L 172 3053 
L 172 3500 
L 594 3500 
L 594 4494 
L 1172 4494 
z
" transform="scale(0.015625)"/>
       <path id="DejaVuSans-79" d="M 2059 -325 
Q 1816 -950 1584 -1140 
Q 1353 -1331 966 -1331 
L 506 -1331 
L 506 -850 
L 844 -850 
Q 1081 -850 1212 -737 
Q 1344 -625 1503 -206 
L 1606 56 
L 191 3500 
L 800 3500 
L 1894 763 
L 2988 3500 
L 3597 3500 
L 2059 -325 
z
" transform="scale(0.015625)"/>
      </defs>
      <use xlink:href="#DejaVuSans-47"/>
      <use xlink:href="#DejaVuSans-65" x="77.490234"/>
      <use xlink:href="#DejaVuSans-6c" x="139.013672"/>
      <use xlink:href="#DejaVuSans-61" x="166.796875"/>
      <use xlink:href="#DejaVuSans-62" x="228.076172"/>
      <use xlink:href="#DejaVuSans-69" x="291.552734"/>
      <use xlink:href="#DejaVuSans-6c" x="319.335938"/>
      <use xlink:href="#DejaVuSans-69" x="347.119141"/>
      <use xlink:href="#DejaVuSans-74" x="374.902344"/>
      <use xlink:href="#DejaVuSans-79" x="414.111328"/>
     </g>
    </g>
   </g>
   <g id="matplotlib.axis_2">
    <g id="ytick_1">
     <g id="line2d_9"/>
     <g id="text_10">
      <!-- 0 -->
      <g style="fill: #262626" transform="translate(75.0475 519.478594)scale(0.18 -0.18)">
       <use xlink:href="#DejaVuSans-30"/>
      </g>
     </g>
    </g>
    <g id="ytick_2">
     <g id="line2d_10"/>
     <g id="text_11">
      <!-- 1 -->
      <g style="fill: #262626" transform="translate(75.0475 464.038594)scale(0.18 -0.18)">
       <defs>
        <path id="DejaVuSans-31" d="M 794 531 
L 1825 531 
L 1825 4091 
L 703 3866 
L 703 4441 
L 1819 4666 
L 2450 4666 
L 2450 531 
L 3481 531 
L 3481 0 
L 794 0 
L 794 531 
z
" transform="scale(0.015625)"/>
       </defs>
       <use xlink:href="#DejaVuSans-31"/>
      </g>
     </g>
    </g>
    <g id="ytick_3">
     <g id="line2d_11"/>
     <g id="text_12">
      <!-- 2 -->
      <g style="fill: #262626" transform="translate(75.0475 408.598594)scale(0.18 -0.18)">
       <defs>
        <path id="DejaVuSans-32" d="M 1228 531 
L 3431 531 
L 3431 0 
L 469 0 
L 469 531 
Q 828 903 1448 1529 
Q 2069 2156 2228 2338 
Q 2531 2678 2651 2914 
Q 2772 3150 2772 3378 
Q 2772 3750 2511 3984 
Q 2250 4219 1831 4219 
Q 1534 4219 1204 4116 
Q 875 4013 500 3803 
L 500 4441 
Q 881 4594 1212 4672 
Q 1544 4750 1819 4750 
Q 2544 4750 2975 4387 
Q 3406 4025 3406 3419 
Q 3406 3131 3298 2873 
Q 3191 2616 2906 2266 
Q 2828 2175 2409 1742 
Q 1991 1309 1228 531 
z
" transform="scale(0.015625)"/>
       </defs>
       <use xlink:href="#DejaVuSans-32"/>
      </g>
     </g>
    </g>
    <g id="ytick_4">
     <g id="line2d_12"/>
     <g id="text_13">
      <!-- 3 -->
      <g style="fill: #262626" transform="translate(75.0475 353.158594)scale(0.18 -0.18)">
       <use xlink:href="#DejaVuSans-33"/>
      </g>
     </g>
    </g>
    <g id="ytick_5">
     <g id="line2d_13"/>
     <g id="text_14">
      <!-- 4 -->
      <g style="fill: #262626" transform="translate(75.0475 297.718594)scale(0.18 -0.18)">
       <use xlink:href="#DejaVuSans-34"/>
      </g>
     </g>
    </g>
    <g id="ytick_6">
     <g id="line2d_14"/>
     <g id="text_15">
      <!-- 5 -->
      <g style="fill: #262626" transform="translate(75.0475 242.278594)scale(0.18 -0.18)">
       <use xlink:href="#DejaVuSans-35"/>
      </g>
     </g>
    </g>
    <g id="ytick_7">
     <g id="line2d_15"/>
     <g id="text_16">
      <!-- 6 -->
      <g style="fill: #262626" transform="translate(75.0475 186.838594)scale(0.18 -0.18)">
       <use xlink:href="#DejaVuSans-36"/>
      </g>
     </g>
    </g>
    <g id="ytick_8">
     <g id="line2d_16"/>
     <g id="text_17">
      <!-- 7 -->
      <g style="fill: #262626" transform="translate(75.0475 131.398594)scale(0.18 -0.18)">
       <use xlink:href="#DejaVuSans-37"/>
      </g>
     </g>
    </g>
    <g id="ytick_9">
     <g id="line2d_17"/>
     <g id="text_18">
      <!-- 8 -->
      <g style="fill: #262626" transform="translate(75.0475 75.958594)scale(0.18 -0.18)">
       <defs>
        <path id="DejaVuSans-38" d="M 2034 2216 
Q 1584 2216 1326 1975 
Q 1069 1734 1069 1313 
Q 1069 891 1326 650 
Q 1584 409 2034 409 
Q 2484 409 2743 651 
Q 3003 894 3003 1313 
Q 3003 1734 2745 1975 
Q 2488 2216 2034 2216 
z
M 1403 2484 
Q 997 2584 770 2862 
Q 544 3141 544 3541 
Q 544 4100 942 4425 
Q 1341 4750 2034 4750 
Q 2731 4750 3128 4425 
Q 3525 4100 3525 3541 
Q 3525 3141 3298 2862 
Q 3072 2584 2669 2484 
Q 3125 2378 3379 2068 
Q 3634 1759 3634 1313 
Q 3634 634 3220 271 
Q 2806 -91 2034 -91 
Q 1263 -91 848 271 
Q 434 634 434 1313 
Q 434 1759 690 2068 
Q 947 2378 1403 2484 
z
M 1172 3481 
Q 1172 3119 1398 2916 
Q 1625 2713 2034 2713 
Q 2441 2713 2670 2916 
Q 2900 3119 2900 3481 
Q 2900 3844 2670 4047 
Q 2441 4250 2034 4250 
Q 1625 4250 1398 4047 
Q 1172 3844 1172 3481 
z
" transform="scale(0.015625)"/>
       </defs>
       <use xlink:href="#DejaVuSans-38"/>
      </g>
     </g>
    </g>
    <g id="text_19">
     <!-- Density -->
     <g style="fill: #262626" transform="translate(66.888125 328.897187)rotate(-90)scale(0.2 -0.2)">
      <defs>
       <path id="DejaVuSans-44" d="M 1259 4147 
L 1259 519 
L 2022 519 
Q 2988 519 3436 956 
Q 3884 1394 3884 2338 
Q 3884 3275 3436 3711 
Q 2988 4147 2022 4147 
L 1259 4147 
z
M 628 4666 
L 1925 4666 
Q 3281 4666 3915 4102 
Q 4550 3538 4550 2338 
Q 4550 1131 3912 565 
Q 3275 0 1925 0 
L 628 0 
L 628 4666 
z
" transform="scale(0.015625)"/>
       <path id="DejaVuSans-6e" d="M 3513 2113 
L 3513 0 
L 2938 0 
L 2938 2094 
Q 2938 2591 2744 2837 
Q 2550 3084 2163 3084 
Q 1697 3084 1428 2787 
Q 1159 2491 1159 1978 
L 1159 0 
L 581 0 
L 581 3500 
L 1159 3500 
L 1159 2956 
Q 1366 3272 1645 3428 
Q 1925 3584 2291 3584 
Q 2894 3584 3203 3211 
Q 3513 2838 3513 2113 
z
" transform="scale(0.015625)"/>
       <path id="DejaVuSans-73" d="M 2834 3397 
L 2834 2853 
Q 2591 2978 2328 3040 
Q 2066 3103 1784 3103 
Q 1356 3103 1142 2972 
Q 928 2841 928 2578 
Q 928 2378 1081 2264 
Q 1234 2150 1697 2047 
L 1894 2003 
Q 2506 1872 2764 1633 
Q 3022 1394 3022 966 
Q 3022 478 2636 193 
Q 2250 -91 1575 -91 
Q 1294 -91 989 -36 
Q 684 19 347 128 
L 347 722 
Q 666 556 975 473 
Q 1284 391 1588 391 
Q 1994 391 2212 530 
Q 2431 669 2431 922 
Q 2431 1156 2273 1281 
Q 2116 1406 1581 1522 
L 1381 1569 
Q 847 1681 609 1914 
Q 372 2147 372 2553 
Q 372 3047 722 3315 
Q 1072 3584 1716 3584 
Q 2034 3584 2315 3537 
Q 2597 3491 2834 3397 
z
" transform="scale(0.015625)"/>
      </defs>
      <use xlink:href="#DejaVuSans-44"/>
      <use xlink:href="#DejaVuSans-65" x="77.001953"/>
      <use xlink:href="#DejaVuSans-6e" x="138.525391"/>
      <use xlink:href="#DejaVuSans-73" x="201.904297"/>
      <use xlink:href="#DejaVuSans-69" x="254.003906"/>
      <use xlink:href="#DejaVuSans-74" x="281.787109"/>
      <use xlink:href="#DejaVuSans-79" x="320.996094"/>
     </g>
    </g>
   </g>
   <g id="PolyCollection_1">
    <path d="M -73.775022 512.64 
L -73.775022 512.635691 
L -70.069901 512.63025 
L -66.36478 512.619505 
L -62.659659 512.59997 
L -58.954538 512.567322 
L -55.249417 512.517293 
L -51.544296 512.447264 
L -47.839175 512.358237 
L -44.134054 512.256402 
L -40.428933 512.15326 
L -36.723812 512.063552 
L -33.018691 512.001092 
L -29.31357 511.97367 
L -25.608449 511.978992 
L -21.903328 512.003535 
L -18.198207 512.025272 
L -14.493086 512.019744 
L -10.787965 511.967611 
L -7.082844 511.861074 
L -3.377723 511.706729 
L 0.327398 511.523673 
L 4.032519 511.337538 
L 7.73764 511.172972 
L 11.442761 511.047811 
L 15.147882 510.971146 
L 18.853003 510.945244 
L 22.558124 510.969035 
L 26.263245 511.040326 
L 29.968366 511.155177 
L 33.673487 511.305216 
L 37.378607 511.475262 
L 41.083728 511.643673 
L 44.788849 511.786235 
L 48.49397 511.882307 
L 52.199091 511.920468 
L 55.904212 511.900804 
L 59.609333 511.83231 
L 63.314454 511.726199 
L 67.019575 511.588087 
L 70.724696 511.413161 
L 74.429817 511.187578 
L 78.134938 510.896633 
L 81.840059 510.536681 
L 85.54518 510.125229 
L 89.250301 509.703521 
L 92.955422 509.328821 
L 96.660543 509.058252 
L 100.365664 508.930205 
L 104.070785 508.950684 
L 107.775906 509.089873 
L 111.481027 509.289857 
L 115.186148 509.480151 
L 118.891269 509.595318 
L 122.59639 509.588875 
L 126.301511 509.439254 
L 130.006632 509.146135 
L 133.711753 508.718632 
L 137.416874 508.160109 
L 141.121995 507.456441 
L 144.827116 506.573893 
L 148.532237 505.468713 
L 152.237358 504.104672 
L 155.942479 502.470209 
L 159.6476 500.586437 
L 163.352721 498.501816 
L 167.057842 496.27624 
L 170.762963 493.962763 
L 174.468084 491.595853 
L 178.173205 489.19041 
L 181.878326 486.748449 
L 185.583447 484.264649 
L 189.288568 481.722154 
L 192.993689 479.077237 
L 196.69881 476.242548 
L 200.403931 473.086138 
L 204.109052 469.45998 
L 207.814173 465.255562 
L 211.519294 460.463487 
L 215.224415 455.203229 
L 218.929536 449.699068 
L 222.634657 444.206257 
L 226.339778 438.920748 
L 230.044899 433.916404 
L 233.75002 429.137402 
L 237.455141 424.441159 
L 241.160262 419.660118 
L 244.865383 414.645596 
L 248.570504 409.274104 
L 252.275625 403.422648 
L 255.980746 396.938183 
L 259.685867 389.628547 
L 263.390988 381.289001 
L 267.096109 371.757895 
L 270.80123 360.977051 
L 274.506351 349.02584 
L 278.211472 336.107002 
L 281.916593 322.484756 
L 285.621714 308.402045 
L 289.326835 294.020042 
L 293.031956 279.417488 
L 296.737077 264.658324 
L 300.442198 249.896052 
L 304.147319 235.45517 
L 307.85244 221.833881 
L 311.557561 209.609908 
L 315.262682 199.28166 
L 318.967803 191.109329 
L 322.672924 185.017278 
L 326.378045 180.58811 
L 330.083166 177.144322 
L 333.788287 173.892852 
L 337.493408 170.100338 
L 341.198529 165.26183 
L 344.90365 159.22061 
L 348.608771 152.201428 
L 352.313892 144.743117 
L 356.019013 137.553416 
L 359.724134 131.339204 
L 363.429255 126.671118 
L 367.134376 123.919468 
L 370.839497 123.261543 
L 374.544618 124.728307 
L 378.249739 128.246895 
L 381.95486 133.649302 
L 385.659981 140.64917 
L 389.365102 148.818696 
L 393.070223 157.605607 
L 396.775344 166.407353 
L 400.480465 174.678691 
L 404.185586 182.017532 
L 407.890707 188.176933 
L 411.595828 192.991462 
L 415.300949 196.262496 
L 419.00607 197.685132 
L 422.711191 196.891987 
L 426.416312 193.631692 
L 430.121432 188.016869 
L 433.826553 180.713547 
L 437.531674 172.945049 
L 441.236795 166.261223 
L 444.941916 162.144199 
L 448.647037 161.61698 
L 452.352158 165.029718 
L 456.057279 172.10865 
L 459.7624 182.215312 
L 463.467521 194.662704 
L 467.172642 208.930726 
L 470.877763 224.709407 
L 474.582884 241.809292 
L 478.288005 260.039283 
L 481.993126 279.135149 
L 485.698247 298.759066 
L 489.403368 318.538626 
L 493.108489 338.105106 
L 496.81361 357.114518 
L 500.518731 375.25894 
L 504.223852 392.279778 
L 507.928973 407.983944 
L 511.634094 422.254882 
L 515.339215 435.051595 
L 519.044336 446.396268 
L 522.749457 456.356141 
L 526.454578 465.025052 
L 530.159699 472.507631 
L 533.86482 478.907956 
L 537.569941 484.32454 
L 541.275062 488.852333 
L 544.980183 492.58942 
L 548.685304 495.643412 
L 552.390425 498.13267 
L 556.095546 500.180536 
L 559.800667 501.904398 
L 563.505788 503.4035 
L 567.210909 504.749543 
L 570.91603 505.982888 
L 574.621151 507.115466 
L 578.326272 508.139279 
L 582.031393 509.037385 
L 585.736514 509.79349 
L 589.441635 510.397535 
L 593.146756 510.84734 
L 596.851877 511.148576 
L 600.556998 511.315424 
L 604.262119 511.372288 
L 607.96724 511.35462 
L 611.672361 511.306208 
L 615.377482 511.271883 
L 619.082603 511.287554 
L 622.787724 511.371581 
L 626.492845 511.521411 
L 630.197966 511.716991 
L 633.903087 511.929283 
L 637.608208 512.130101 
L 641.313329 512.299449 
L 645.01845 512.428385 
L 648.723571 512.517706 
L 652.428692 512.57429 
L 656.133813 512.607182 
L 659.838934 512.624768 
L 663.544055 512.633431 
L 663.544055 512.64 
L 663.544055 512.64 
L 659.838934 512.64 
L 656.133813 512.64 
L 652.428692 512.64 
L 648.723571 512.64 
L 645.01845 512.64 
L 641.313329 512.64 
L 637.608208 512.64 
L 633.903087 512.64 
L 630.197966 512.64 
L 626.492845 512.64 
L 622.787724 512.64 
L 619.082603 512.64 
L 615.377482 512.64 
L 611.672361 512.64 
L 607.96724 512.64 
L 604.262119 512.64 
L 600.556998 512.64 
L 596.851877 512.64 
L 593.146756 512.64 
L 589.441635 512.64 
L 585.736514 512.64 
L 582.031393 512.64 
L 578.326272 512.64 
L 574.621151 512.64 
L 570.91603 512.64 
L 567.210909 512.64 
L 563.505788 512.64 
L 559.800667 512.64 
L 556.095546 512.64 
L 552.390425 512.64 
L 548.685304 512.64 
L 544.980183 512.64 
L 541.275062 512.64 
L 537.569941 512.64 
L 533.86482 512.64 
L 530.159699 512.64 
L 526.454578 512.64 
L 522.749457 512.64 
L 519.044336 512.64 
L 515.339215 512.64 
L 511.634094 512.64 
L 507.928973 512.64 
L 504.223852 512.64 
L 500.518731 512.64 
L 496.81361 512.64 
L 493.108489 512.64 
L 489.403368 512.64 
L 485.698247 512.64 
L 481.993126 512.64 
L 478.288005 512.64 
L 474.582884 512.64 
L 470.877763 512.64 
L 467.172642 512.64 
L 463.467521 512.64 
L 459.7624 512.64 
L 456.057279 512.64 
L 452.352158 512.64 
L 448.647037 512.64 
L 444.941916 512.64 
L 441.236795 512.64 
L 437.531674 512.64 
L 433.826553 512.64 
L 430.121432 512.64 
L 426.416312 512.64 
L 422.711191 512.64 
L 419.00607 512.64 
L 415.300949 512.64 
L 411.595828 512.64 
L 407.890707 512.64 
L 404.185586 512.64 
L 400.480465 512.64 
L 396.775344 512.64 
L 393.070223 512.64 
L 389.365102 512.64 
L 385.659981 512.64 
L 381.95486 512.64 
L 378.249739 512.64 
L 374.544618 512.64 
L 370.839497 512.64 
L 367.134376 512.64 
L 363.429255 512.64 
L 359.724134 512.64 
L 356.019013 512.64 
L 352.313892 512.64 
L 348.608771 512.64 
L 344.90365 512.64 
L 341.198529 512.64 
L 337.493408 512.64 
L 333.788287 512.64 
L 330.083166 512.64 
L 326.378045 512.64 
L 322.672924 512.64 
L 318.967803 512.64 
L 315.262682 512.64 
L 311.557561 512.64 
L 307.85244 512.64 
L 304.147319 512.64 
L 300.442198 512.64 
L 296.737077 512.64 
L 293.031956 512.64 
L 289.326835 512.64 
L 285.621714 512.64 
L 281.916593 512.64 
L 278.211472 512.64 
L 274.506351 512.64 
L 270.80123 512.64 
L 267.096109 512.64 
L 263.390988 512.64 
L 259.685867 512.64 
L 255.980746 512.64 
L 252.275625 512.64 
L 248.570504 512.64 
L 244.865383 512.64 
L 241.160262 512.64 
L 237.455141 512.64 
L 233.75002 512.64 
L 230.044899 512.64 
L 226.339778 512.64 
L 222.634657 512.64 
L 218.929536 512.64 
L 215.224415 512.64 
L 211.519294 512.64 
L 207.814173 512.64 
L 204.109052 512.64 
L 200.403931 512.64 
L 196.69881 512.64 
L 192.993689 512.64 
L 189.288568 512.64 
L 185.583447 512.64 
L 181.878326 512.64 
L 178.173205 512.64 
L 174.468084 512.64 
L 170.762963 512.64 
L 167.057842 512.64 
L 163.352721 512.64 
L 159.6476 512.64 
L 155.942479 512.64 
L 152.237358 512.64 
L 148.532237 512.64 
L 144.827116 512.64 
L 141.121995 512.64 
L 137.416874 512.64 
L 133.711753 512.64 
L 130.006632 512.64 
L 126.301511 512.64 
L 122.59639 512.64 
L 118.891269 512.64 
L 115.186148 512.64 
L 111.481027 512.64 
L 107.775906 512.64 
L 104.070785 512.64 
L 100.365664 512.64 
L 96.660543 512.64 
L 92.955422 512.64 
L 89.250301 512.64 
L 85.54518 512.64 
L 81.840059 512.64 
L 78.134938 512.64 
L 74.429817 512.64 
L 70.724696 512.64 
L 67.019575 512.64 
L 63.314454 512.64 
L 59.609333 512.64 
L 55.904212 512.64 
L 52.199091 512.64 
L 48.49397 512.64 
L 44.788849 512.64 
L 41.083728 512.64 
L 37.378607 512.64 
L 33.673487 512.64 
L 29.968366 512.64 
L 26.263245 512.64 
L 22.558124 512.64 
L 18.853003 512.64 
L 15.147882 512.64 
L 11.442761 512.64 
L 7.73764 512.64 
L 4.032519 512.64 
L 0.327398 512.64 
L -3.377723 512.64 
L -7.082844 512.64 
L -10.787965 512.64 
L -14.493086 512.64 
L -18.198207 512.64 
L -21.903328 512.64 
L -25.608449 512.64 
L -29.31357 512.64 
L -33.018691 512.64 
L -36.723812 512.64 
L -40.428933 512.64 
L -44.134054 512.64 
L -47.839175 512.64 
L -51.544296 512.64 
L -55.249417 512.64 
L -58.954538 512.64 
L -62.659659 512.64 
L -66.36478 512.64 
L -70.069901 512.64 
L -73.775022 512.64 
z
" clip-path="url(#p2f914c4a75)" style="fill: #e5e5e5; fill-opacity: 0.7"/>
   </g>
   <g id="PolyCollection_2">
    <defs>
     <path id="mb0084b7305" d="M -73.775022 -63.36 
L -73.775022 -63.364309 
L -70.069901 -63.36975 
L -66.36478 -63.380495 
L -62.659659 -63.40003 
L -58.954538 -63.432678 
L -55.249417 -63.482707 
L -51.544296 -63.552736 
L -47.839175 -63.641763 
L -44.134054 -63.743598 
L -40.428933 -63.84674 
L -36.723812 -63.936448 
L -33.018691 -63.998908 
L -29.31357 -64.02633 
L -25.608449 -64.021008 
L -21.903328 -63.996465 
L -18.198207 -63.974728 
L -14.493086 -63.980256 
L -10.787965 -64.032389 
L -7.082844 -64.138926 
L -3.377723 -64.293271 
L 0.327398 -64.476327 
L 4.032519 -64.662462 
L 7.73764 -64.827028 
L 11.442761 -64.952189 
L 15.147882 -65.028854 
L 18.853003 -65.054756 
L 22.558124 -65.030965 
L 26.263245 -64.959674 
L 29.968366 -64.844823 
L 33.673487 -64.694784 
L 37.378607 -64.524738 
L 41.083728 -64.356327 
L 44.788849 -64.213765 
L 48.49397 -64.117693 
L 52.199091 -64.079532 
L 55.904212 -64.099196 
L 59.609333 -64.16769 
L 63.314454 -64.273801 
L 67.019575 -64.411913 
L 70.724696 -64.586839 
L 74.429817 -64.812422 
L 78.134938 -65.103367 
L 81.840059 -65.463319 
L 85.54518 -65.874771 
L 89.250301 -66.296479 
L 92.955422 -66.671179 
L 96.660543 -66.941748 
L 100.365664 -67.069795 
L 104.070785 -67.049316 
L 107.775906 -66.910127 
L 111.481027 -66.710143 
L 115.186148 -66.519849 
L 118.891269 -66.404682 
L 122.59639 -66.411125 
L 126.301511 -66.560746 
L 130.006632 -66.853865 
L 133.711753 -67.281368 
L 137.416874 -67.839891 
L 141.121995 -68.543559 
L 144.827116 -69.426107 
L 148.532237 -70.531287 
L 152.237358 -71.895328 
L 155.942479 -73.529791 
L 159.6476 -75.413563 
L 163.352721 -77.498184 
L 167.057842 -79.72376 
L 170.762963 -82.037237 
L 174.468084 -84.404147 
L 178.173205 -86.80959 
L 181.878326 -89.251551 
L 185.583447 -91.735351 
L 189.288568 -94.277846 
L 192.993689 -96.922763 
L 196.69881 -99.757452 
L 200.403931 -102.913862 
L 204.109052 -106.54002 
L 207.814173 -110.744438 
L 211.519294 -115.536513 
L 215.224415 -120.796771 
L 218.929536 -126.300932 
L 222.634657 -131.793743 
L 226.339778 -137.079252 
L 230.044899 -142.083596 
L 233.75002 -146.862598 
L 237.455141 -151.558841 
L 241.160262 -156.339882 
L 244.865383 -161.354404 
L 248.570504 -166.725896 
L 252.275625 -172.577352 
L 255.980746 -179.061817 
L 259.685867 -186.371453 
L 263.390988 -194.710999 
L 267.096109 -204.242105 
L 270.80123 -215.022949 
L 274.506351 -226.97416 
L 278.211472 -239.892998 
L 281.916593 -253.515244 
L 285.621714 -267.597955 
L 289.326835 -281.979958 
L 293.031956 -296.582512 
L 296.737077 -311.341676 
L 300.442198 -326.103948 
L 304.147319 -340.54483 
L 307.85244 -354.166119 
L 311.557561 -366.390092 
L 315.262682 -376.71834 
L 318.967803 -384.890671 
L 322.672924 -390.982722 
L 326.378045 -395.41189 
L 330.083166 -398.855678 
L 333.788287 -402.107148 
L 337.493408 -405.899662 
L 341.198529 -410.73817 
L 344.90365 -416.77939 
L 348.608771 -423.798572 
L 352.313892 -431.256883 
L 352.313892 -63.36 
L 352.313892 -63.36 
L 348.608771 -63.36 
L 344.90365 -63.36 
L 341.198529 -63.36 
L 337.493408 -63.36 
L 333.788287 -63.36 
L 330.083166 -63.36 
L 326.378045 -63.36 
L 322.672924 -63.36 
L 318.967803 -63.36 
L 315.262682 -63.36 
L 311.557561 -63.36 
L 307.85244 -63.36 
L 304.147319 -63.36 
L 300.442198 -63.36 
L 296.737077 -63.36 
L 293.031956 -63.36 
L 289.326835 -63.36 
L 285.621714 -63.36 
L 281.916593 -63.36 
L 278.211472 -63.36 
L 274.506351 -63.36 
L 270.80123 -63.36 
L 267.096109 -63.36 
L 263.390988 -63.36 
L 259.685867 -63.36 
L 255.980746 -63.36 
L 252.275625 -63.36 
L 248.570504 -63.36 
L 244.865383 -63.36 
L 241.160262 -63.36 
L 237.455141 -63.36 
L 233.75002 -63.36 
L 230.044899 -63.36 
L 226.339778 -63.36 
L 222.634657 -63.36 
L 218.929536 -63.36 
L 215.224415 -63.36 
L 211.519294 -63.36 
L 207.814173 -63.36 
L 204.109052 -63.36 
L 200.403931 -63.36 
L 196.69881 -63.36 
L 192.993689 -63.36 
L 189.288568 -63.36 
L 185.583447 -63.36 
L 181.878326 -63.36 
L 178.173205 -63.36 
L 174.468084 -63.36 
L 170.762963 -63.36 
L 167.057842 -63.36 
L 163.352721 -63.36 
L 159.6476 -63.36 
L 155.942479 -63.36 
L 152.237358 -63.36 
L 148.532237 -63.36 
L 144.827116 -63.36 
L 141.121995 -63.36 
L 137.416874 -63.36 
L 133.711753 -63.36 
L 130.006632 -63.36 
L 126.301511 -63.36 
L 122.59639 -63.36 
L 118.891269 -63.36 
L 115.186148 -63.36 
L 111.481027 -63.36 
L 107.775906 -63.36 
L 104.070785 -63.36 
L 100.365664 -63.36 
L 96.660543 -63.36 
L 92.955422 -63.36 
L 89.250301 -63.36 
L 85.54518 -63.36 
L 81.840059 -63.36 
L 78.134938 -63.36 
L 74.429817 -63.36 
L 70.724696 -63.36 
L 67.019575 -63.36 
L 63.314454 -63.36 
L 59.609333 -63.36 
L 55.904212 -63.36 
L 52.199091 -63.36 
L 48.49397 -63.36 
L 44.788849 -63.36 
L 41.083728 -63.36 
L 37.378607 -63.36 
L 33.673487 -63.36 
L 29.968366 -63.36 
L 26.263245 -63.36 
L 22.558124 -63.36 
L 18.853003 -63.36 
L 15.147882 -63.36 
L 11.442761 -63.36 
L 7.73764 -63.36 
L 4.032519 -63.36 
L 0.327398 -63.36 
L -3.377723 -63.36 
L -7.082844 -63.36 
L -10.787965 -63.36 
L -14.493086 -63.36 
L -18.198207 -63.36 
L -21.903328 -63.36 
L -25.608449 -63.36 
L -29.31357 -63.36 
L -33.018691 -63.36 
L -36.723812 -63.36 
L -40.428933 -63.36 
L -44.134054 -63.36 
L -47.839175 -63.36 
L -51.544296 -63.36 
L -55.249417 -63.36 
L -58.954538 -63.36 
L -62.659659 -63.36 
L -66.36478 -63.36 
L -70.069901 -63.36 
L -73.775022 -63.36 
z
"/>
    </defs>
    <g clip-path="url(#p2f914c4a75)">
     <use xlink:href="#mb0084b7305" x="0" y="576" style="fill: #e5e5e5; fill-opacity: 0.3"/>
    </g>
   </g>
   <g id="PolyCollection_3">
    <defs>
     <path id="m51cb5f50fd" d="M 356.019013 -63.36 
L 356.019013 -438.446584 
L 359.724134 -444.660796 
L 363.429255 -449.328882 
L 367.134376 -452.080532 
L 370.839497 -452.738457 
L 374.544618 -451.271693 
L 378.249739 -447.753105 
L 381.95486 -442.350698 
L 385.659981 -435.35083 
L 389.365102 -427.181304 
L 393.070223 -418.394393 
L 396.775344 -409.592647 
L 400.480465 -401.321309 
L 404.185586 -393.982468 
L 407.890707 -387.823067 
L 411.595828 -383.008538 
L 415.300949 -379.737504 
L 419.00607 -378.314868 
L 422.711191 -379.108013 
L 426.416312 -382.368308 
L 430.121432 -387.983131 
L 433.826553 -395.286453 
L 437.531674 -403.054951 
L 441.236795 -409.738777 
L 444.941916 -413.855801 
L 448.647037 -414.38302 
L 452.352158 -410.970282 
L 456.057279 -403.89135 
L 459.7624 -393.784688 
L 463.467521 -381.337296 
L 467.172642 -367.069274 
L 470.877763 -351.290593 
L 470.877763 -63.36 
L 470.877763 -63.36 
L 467.172642 -63.36 
L 463.467521 -63.36 
L 459.7624 -63.36 
L 456.057279 -63.36 
L 452.352158 -63.36 
L 448.647037 -63.36 
L 444.941916 -63.36 
L 441.236795 -63.36 
L 437.531674 -63.36 
L 433.826553 -63.36 
L 430.121432 -63.36 
L 426.416312 -63.36 
L 422.711191 -63.36 
L 419.00607 -63.36 
L 415.300949 -63.36 
L 411.595828 -63.36 
L 407.890707 -63.36 
L 404.185586 -63.36 
L 400.480465 -63.36 
L 396.775344 -63.36 
L 393.070223 -63.36 
L 389.365102 -63.36 
L 385.659981 -63.36 
L 381.95486 -63.36 
L 378.249739 -63.36 
L 374.544618 -63.36 
L 370.839497 -63.36 
L 367.134376 -63.36 
L 363.429255 -63.36 
L 359.724134 -63.36 
L 356.019013 -63.36 
z
"/>
    </defs>
    <g clip-path="url(#p2f914c4a75)">
     <use xlink:href="#m51cb5f50fd" x="0" y="576" style="fill: #f5af02; fill-opacity: 0.3"/>
    </g>
   </g>
   <g id="PolyCollection_4">
    <defs>
     <path id="mad9626053e" d="M 474.582884 -63.36 
L 474.582884 -334.190708 
L 478.288005 -315.960717 
L 481.993126 -296.864851 
L 485.698247 -277.240934 
L 489.403368 -257.461374 
L 493.108489 -237.894894 
L 496.81361 -218.885482 
L 500.518731 -200.74106 
L 504.223852 -183.720222 
L 507.928973 -168.016056 
L 511.634094 -153.745118 
L 515.339215 -140.948405 
L 519.044336 -129.603732 
L 522.749457 -119.643859 
L 526.454578 -110.974948 
L 530.159699 -103.492369 
L 533.86482 -97.092044 
L 537.569941 -91.67546 
L 541.275062 -87.147667 
L 544.980183 -83.41058 
L 548.685304 -80.356588 
L 552.390425 -77.86733 
L 556.095546 -75.819464 
L 559.800667 -74.095602 
L 563.505788 -72.5965 
L 567.210909 -71.250457 
L 570.91603 -70.017112 
L 574.621151 -68.884534 
L 578.326272 -67.860721 
L 582.031393 -66.962615 
L 585.736514 -66.20651 
L 589.441635 -65.602465 
L 593.146756 -65.15266 
L 596.851877 -64.851424 
L 600.556998 -64.684576 
L 604.262119 -64.627712 
L 607.96724 -64.64538 
L 611.672361 -64.693792 
L 615.377482 -64.728117 
L 619.082603 -64.712446 
L 622.787724 -64.628419 
L 626.492845 -64.478589 
L 630.197966 -64.283009 
L 633.903087 -64.070717 
L 637.608208 -63.869899 
L 641.313329 -63.700551 
L 645.01845 -63.571615 
L 648.723571 -63.482294 
L 652.428692 -63.42571 
L 656.133813 -63.392818 
L 659.838934 -63.375232 
L 663.544055 -63.366569 
L 663.544055 -63.36 
L 663.544055 -63.36 
L 659.838934 -63.36 
L 656.133813 -63.36 
L 652.428692 -63.36 
L 648.723571 -63.36 
L 645.01845 -63.36 
L 641.313329 -63.36 
L 637.608208 -63.36 
L 633.903087 -63.36 
L 630.197966 -63.36 
L 626.492845 -63.36 
L 622.787724 -63.36 
L 619.082603 -63.36 
L 615.377482 -63.36 
L 611.672361 -63.36 
L 607.96724 -63.36 
L 604.262119 -63.36 
L 600.556998 -63.36 
L 596.851877 -63.36 
L 593.146756 -63.36 
L 589.441635 -63.36 
L 585.736514 -63.36 
L 582.031393 -63.36 
L 578.326272 -63.36 
L 574.621151 -63.36 
L 570.91603 -63.36 
L 567.210909 -63.36 
L 563.505788 -63.36 
L 559.800667 -63.36 
L 556.095546 -63.36 
L 552.390425 -63.36 
L 548.685304 -63.36 
L 544.980183 -63.36 
L 541.275062 -63.36 
L 537.569941 -63.36 
L 533.86482 -63.36 
L 530.159699 -63.36 
L 526.454578 -63.36 
L 522.749457 -63.36 
L 519.044336 -63.36 
L 515.339215 -63.36 
L 511.634094 -63.36 
L 507.928973 -63.36 
L 504.223852 -63.36 
L 500.518731 -63.36 
L 496.81361 -63.36 
L 493.108489 -63.36 
L 489.403368 -63.36 
L 485.698247 -63.36 
L 481.993126 -63.36 
L 478.288005 -63.36 
L 474.582884 -63.36 
z
"/>
    </defs>
    <g clip-path="url(#p2f914c4a75)">
     <use xlink:href="#mad9626053e" x="0" y="576" style="fill: #7552cc; fill-opacity: 0.3"/>
    </g>
   </g>
   <g id="PolyCollection_5">
    <defs>
     <path id="m478689decf" d="M -73.775022 -63.36 
L -73.775022 -63.364309 
L -70.069901 -63.36975 
L -66.36478 -63.380495 
L -62.659659 -63.40003 
L -58.954538 -63.432678 
L -55.249417 -63.482707 
L -51.544296 -63.552736 
L -47.839175 -63.641763 
L -44.134054 -63.743598 
L -40.428933 -63.84674 
L -36.723812 -63.936448 
L -33.018691 -63.998908 
L -29.31357 -64.02633 
L -25.608449 -64.021008 
L -21.903328 -63.996465 
L -18.198207 -63.974728 
L -14.493086 -63.980256 
L -10.787965 -64.032389 
L -7.082844 -64.138926 
L -3.377723 -64.293271 
L 0.327398 -64.476327 
L 4.032519 -64.662462 
L 7.73764 -64.827028 
L 11.442761 -64.952189 
L 15.147882 -65.028854 
L 18.853003 -65.054756 
L 22.558124 -65.030965 
L 26.263245 -64.959674 
L 29.968366 -64.844823 
L 33.673487 -64.694784 
L 37.378607 -64.524738 
L 41.083728 -64.356327 
L 44.788849 -64.213765 
L 48.49397 -64.117693 
L 52.199091 -64.079532 
L 55.904212 -64.099196 
L 59.609333 -64.16769 
L 63.314454 -64.273801 
L 67.019575 -64.411913 
L 70.724696 -64.586839 
L 74.429817 -64.812422 
L 78.134938 -65.103367 
L 81.840059 -65.463319 
L 85.54518 -65.874771 
L 89.250301 -66.296479 
L 92.955422 -66.671179 
L 96.660543 -66.941748 
L 100.365664 -67.069795 
L 104.070785 -67.049316 
L 107.775906 -66.910127 
L 111.481027 -66.710143 
L 115.186148 -66.519849 
L 118.891269 -66.404682 
L 122.59639 -66.411125 
L 126.301511 -66.560746 
L 130.006632 -66.853865 
L 133.711753 -67.281368 
L 137.416874 -67.839891 
L 141.121995 -68.543559 
L 144.827116 -69.426107 
L 148.532237 -70.531287 
L 152.237358 -71.895328 
L 155.942479 -73.529791 
L 159.6476 -75.413563 
L 163.352721 -77.498184 
L 167.057842 -79.72376 
L 170.762963 -82.037237 
L 174.468084 -84.404147 
L 178.173205 -86.80959 
L 181.878326 -89.251551 
L 185.583447 -91.735351 
L 189.288568 -94.277846 
L 192.993689 -96.922763 
L 196.69881 -99.757452 
L 200.403931 -102.913862 
L 204.109052 -106.54002 
L 207.814173 -110.744438 
L 211.519294 -115.536513 
L 215.224415 -120.796771 
L 218.929536 -126.300932 
L 222.634657 -131.793743 
L 226.339778 -137.079252 
L 230.044899 -142.083596 
L 233.75002 -146.862598 
L 237.455141 -151.558841 
L 241.160262 -156.339882 
L 244.865383 -161.354404 
L 248.570504 -166.725896 
L 252.275625 -172.577352 
L 255.980746 -179.061817 
L 259.685867 -186.371453 
L 263.390988 -194.710999 
L 267.096109 -204.242105 
L 270.80123 -215.022949 
L 274.506351 -226.97416 
L 274.506351 -63.36 
L 274.506351 -63.36 
L 270.80123 -63.36 
L 267.096109 -63.36 
L 263.390988 -63.36 
L 259.685867 -63.36 
L 255.980746 -63.36 
L 252.275625 -63.36 
L 248.570504 -63.36 
L 244.865383 -63.36 
L 241.160262 -63.36 
L 237.455141 -63.36 
L 233.75002 -63.36 
L 230.044899 -63.36 
L 226.339778 -63.36 
L 222.634657 -63.36 
L 218.929536 -63.36 
L 215.224415 -63.36 
L 211.519294 -63.36 
L 207.814173 -63.36 
L 204.109052 -63.36 
L 200.403931 -63.36 
L 196.69881 -63.36 
L 192.993689 -63.36 
L 189.288568 -63.36 
L 185.583447 -63.36 
L 181.878326 -63.36 
L 178.173205 -63.36 
L 174.468084 -63.36 
L 170.762963 -63.36 
L 167.057842 -63.36 
L 163.352721 -63.36 
L 159.6476 -63.36 
L 155.942479 -63.36 
L 152.237358 -63.36 
L 148.532237 -63.36 
L 144.827116 -63.36 
L 141.121995 -63.36 
L 137.416874 -63.36 
L 133.711753 -63.36 
L 130.006632 -63.36 
L 126.301511 -63.36 
L 122.59639 -63.36 
L 118.891269 -63.36 
L 115.186148 -63.36 
L 111.481027 -63.36 
L 107.775906 -63.36 
L 104.070785 -63.36 
L 100.365664 -63.36 
L 96.660543 -63.36 
L 92.955422 -63.36 
L 89.250301 -63.36 
L 85.54518 -63.36 
L 81.840059 -63.36 
L 78.134938 -63.36 
L 74.429817 -63.36 
L 70.724696 -63.36 
L 67.019575 -63.36 
L 63.314454 -63.36 
L 59.609333 -63.36 
L 55.904212 -63.36 
L 52.199091 -63.36 
L 48.49397 -63.36 
L 44.788849 -63.36 
L 41.083728 -63.36 
L 37.378607 -63.36 
L 33.673487 -63.36 
L 29.968366 -63.36 
L 26.263245 -63.36 
L 22.558124 -63.36 
L 18.853003 -63.36 
L 15.147882 -63.36 
L 11.442761 -63.36 
L 7.73764 -63.36 
L 4.032519 -63.36 
L 0.327398 -63.36 
L -3.377723 -63.36 
L -7.082844 -63.36 
L -10.787965 -63.36 
L -14.493086 -63.36 
L -18.198207 -63.36 
L -21.903328 -63.36 
L -25.608449 -63.36 
L -29.31357 -63.36 
L -33.018691 -63.36 
L -36.723812 -63.36 
L -40.428933 -63.36 
L -44.134054 -63.36 
L -47.839175 -63.36 
L -51.544296 -63.36 
L -55.249417 -63.36 
L -58.954538 -63.36 
L -62.659659 -63.36 
L -66.36478 -63.36 
L -70.069901 -63.36 
L -73.775022 -63.36 
z
"/>
    </defs>
    <g clip-path="url(#p2f914c4a75)">
     <use xlink:href="#m478689decf" x="0" y="576" style="fill: #8db9ca; fill-opacity: 0.3"/>
    </g>
   </g>
   <g id="patch_3">
    <path d="M 354.689366 512.64 
L 366.518897 512.64 
L 366.518897 97.8503 
L 354.689366 97.8503 
z
" clip-path="url(#p2f914c4a75)" style="fill: #f5af02; opacity: 0.3; stroke: #ffffff; stroke-linejoin: miter"/>
   </g>
   <g id="patch_4">
    <path d="M 367.833289 512.64 
L 379.66282 512.64 
L 379.66282 131.135894 
L 367.833289 131.135894 
z
" clip-path="url(#p2f914c4a75)" style="fill: #f5af02; opacity: 0.3; stroke: #ffffff; stroke-linejoin: miter"/>
   </g>
   <g id="patch_5">
    <path d="M 380.977212 512.64 
L 392.806743 512.64 
L 392.806743 163.56801 
L 380.977212 163.56801 
z
" clip-path="url(#p2f914c4a75)" style="fill: #f5af02; opacity: 0.3; stroke: #ffffff; stroke-linejoin: miter"/>
   </g>
   <g id="patch_6">
    <path d="M 394.121135 512.64 
L 405.950666 512.64 
L 405.950666 194.293173 
L 394.121135 194.293173 
z
" clip-path="url(#p2f914c4a75)" style="fill: #f5af02; opacity: 0.3; stroke: #ffffff; stroke-linejoin: miter"/>
   </g>
   <g id="patch_7">
    <path d="M 407.265058 512.64 
L 419.094589 512.64 
L 419.094589 189.172312 
L 407.265058 189.172312 
z
" clip-path="url(#p2f914c4a75)" style="fill: #f5af02; opacity: 0.3; stroke: #ffffff; stroke-linejoin: miter"/>
   </g>
   <g id="patch_8">
    <path d="M 420.408981 512.64 
L 432.238512 512.64 
L 432.238512 225.871813 
L 420.408981 225.871813 
z
" clip-path="url(#p2f914c4a75)" style="fill: #f5af02; opacity: 0.3; stroke: #ffffff; stroke-linejoin: miter"/>
   </g>
   <g id="patch_9">
    <path d="M 433.552904 512.64 
L 445.382435 512.64 
L 445.382435 91.022486 
L 433.552904 91.022486 
z
" clip-path="url(#p2f914c4a75)" style="fill: #f5af02; opacity: 0.3; stroke: #ffffff; stroke-linejoin: miter"/>
   </g>
   <g id="patch_10">
    <path d="M 446.696827 512.64 
L 458.526358 512.64 
L 458.526358 213.069661 
L 446.696827 213.069661 
z
" clip-path="url(#p2f914c4a75)" style="fill: #f5af02; opacity: 0.3; stroke: #ffffff; stroke-linejoin: miter"/>
   </g>
   <g id="patch_11">
    <path d="M 459.84075 512.64 
L 471.670281 512.64 
L 471.670281 184.051452 
L 459.84075 184.051452 
z
" clip-path="url(#p2f914c4a75)" style="fill: #f5af02; opacity: 0.3; stroke: #ffffff; stroke-linejoin: miter"/>
   </g>
   <g id="patch_12">
    <path d="M -39.628325 512.64 
L -27.798794 512.64 
L -27.798794 510.933047 
L -39.628325 510.933047 
z
" clip-path="url(#p2f914c4a75)" style="fill: #e5e5e5; opacity: 0.3; stroke: #ffffff; stroke-linejoin: miter"/>
   </g>
   <g id="patch_13">
    <path d="M -26.484402 512.64 
L -14.654871 512.64 
L -14.654871 512.64 
L -26.484402 512.64 
z
" clip-path="url(#p2f914c4a75)" style="fill: #e5e5e5; opacity: 0.3; stroke: #ffffff; stroke-linejoin: miter"/>
   </g>
   <g id="patch_14">
    <path d="M -13.340479 512.64 
L -1.510948 512.64 
L -1.510948 512.64 
L -13.340479 512.64 
z
" clip-path="url(#p2f914c4a75)" style="fill: #e5e5e5; opacity: 0.3; stroke: #ffffff; stroke-linejoin: miter"/>
   </g>
   <g id="patch_15">
    <path d="M -0.196556 512.64 
L 11.632975 512.64 
L 11.632975 510.07957 
L -0.196556 510.07957 
z
" clip-path="url(#p2f914c4a75)" style="fill: #e5e5e5; opacity: 0.3; stroke: #ffffff; stroke-linejoin: miter"/>
   </g>
   <g id="patch_16">
    <path d="M 12.947367 512.64 
L 24.776898 512.64 
L 24.776898 510.933047 
L 12.947367 510.933047 
z
" clip-path="url(#p2f914c4a75)" style="fill: #e5e5e5; opacity: 0.3; stroke: #ffffff; stroke-linejoin: miter"/>
   </g>
   <g id="patch_17">
    <path d="M 26.091291 512.64 
L 37.920821 512.64 
L 37.920821 510.933047 
L 26.091291 510.933047 
z
" clip-path="url(#p2f914c4a75)" style="fill: #e5e5e5; opacity: 0.3; stroke: #ffffff; stroke-linejoin: miter"/>
   </g>
   <g id="patch_18">
    <path d="M 39.235214 512.64 
L 51.064744 512.64 
L 51.064744 512.64 
L 39.235214 512.64 
z
" clip-path="url(#p2f914c4a75)" style="fill: #e5e5e5; opacity: 0.3; stroke: #ffffff; stroke-linejoin: miter"/>
   </g>
   <g id="patch_19">
    <path d="M 52.379137 512.64 
L 64.208667 512.64 
L 64.208667 510.933047 
L 52.379137 510.933047 
z
" clip-path="url(#p2f914c4a75)" style="fill: #e5e5e5; opacity: 0.3; stroke: #ffffff; stroke-linejoin: miter"/>
   </g>
   <g id="patch_20">
    <path d="M 65.52306 512.64 
L 77.35259 512.64 
L 77.35259 511.786523 
L 65.52306 511.786523 
z
" clip-path="url(#p2f914c4a75)" style="fill: #e5e5e5; opacity: 0.3; stroke: #ffffff; stroke-linejoin: miter"/>
   </g>
   <g id="patch_21">
    <path d="M 78.666983 512.64 
L 90.496513 512.64 
L 90.496513 509.226093 
L 78.666983 509.226093 
z
" clip-path="url(#p2f914c4a75)" style="fill: #e5e5e5; opacity: 0.3; stroke: #ffffff; stroke-linejoin: miter"/>
   </g>
   <g id="patch_22">
    <path d="M 91.810906 512.64 
L 103.640436 512.64 
L 103.640436 507.51914 
L 91.810906 507.51914 
z
" clip-path="url(#p2f914c4a75)" style="fill: #e5e5e5; opacity: 0.3; stroke: #ffffff; stroke-linejoin: miter"/>
   </g>
   <g id="patch_23">
    <path d="M 104.954829 512.64 
L 116.784359 512.64 
L 116.784359 510.933047 
L 104.954829 510.933047 
z
" clip-path="url(#p2f914c4a75)" style="fill: #e5e5e5; opacity: 0.3; stroke: #ffffff; stroke-linejoin: miter"/>
   </g>
   <g id="patch_24">
    <path d="M 118.098752 512.64 
L 129.928282 512.64 
L 129.928282 509.226093 
L 118.098752 509.226093 
z
" clip-path="url(#p2f914c4a75)" style="fill: #e5e5e5; opacity: 0.3; stroke: #ffffff; stroke-linejoin: miter"/>
   </g>
   <g id="patch_25">
    <path d="M 131.242675 512.64 
L 143.072205 512.64 
L 143.072205 507.51914 
L 131.242675 507.51914 
z
" clip-path="url(#p2f914c4a75)" style="fill: #e5e5e5; opacity: 0.3; stroke: #ffffff; stroke-linejoin: miter"/>
   </g>
   <g id="patch_26">
    <path d="M 144.386598 512.64 
L 156.216128 512.64 
L 156.216128 504.105233 
L 144.386598 504.105233 
z
" clip-path="url(#p2f914c4a75)" style="fill: #e5e5e5; opacity: 0.3; stroke: #ffffff; stroke-linejoin: miter"/>
   </g>
   <g id="patch_27">
    <path d="M 157.530521 512.64 
L 169.360051 512.64 
L 169.360051 496.423942 
L 157.530521 496.423942 
z
" clip-path="url(#p2f914c4a75)" style="fill: #e5e5e5; opacity: 0.3; stroke: #ffffff; stroke-linejoin: miter"/>
   </g>
   <g id="patch_28">
    <path d="M 170.674444 512.64 
L 182.503974 512.64 
L 182.503974 486.182221 
L 170.674444 486.182221 
z
" clip-path="url(#p2f914c4a75)" style="fill: #e5e5e5; opacity: 0.3; stroke: #ffffff; stroke-linejoin: miter"/>
   </g>
   <g id="patch_29">
    <path d="M 183.818367 512.64 
L 195.647898 512.64 
L 195.647898 474.233546 
L 183.818367 474.233546 
z
" clip-path="url(#p2f914c4a75)" style="fill: #e5e5e5; opacity: 0.3; stroke: #ffffff; stroke-linejoin: miter"/>
   </g>
   <g id="patch_30">
    <path d="M 196.96229 512.64 
L 208.791821 512.64 
L 208.791821 477.647453 
L 196.96229 477.647453 
z
" clip-path="url(#p2f914c4a75)" style="fill: #e5e5e5; opacity: 0.3; stroke: #ffffff; stroke-linejoin: miter"/>
   </g>
   <g id="patch_31">
    <path d="M 210.106213 512.64 
L 221.935744 512.64 
L 221.935744 431.559709 
L 210.106213 431.559709 
z
" clip-path="url(#p2f914c4a75)" style="fill: #e5e5e5; opacity: 0.3; stroke: #ffffff; stroke-linejoin: miter"/>
   </g>
   <g id="patch_32">
    <path d="M 223.250136 512.64 
L 235.079667 512.64 
L 235.079667 431.559709 
L 223.250136 431.559709 
z
" clip-path="url(#p2f914c4a75)" style="fill: #e5e5e5; opacity: 0.3; stroke: #ffffff; stroke-linejoin: miter"/>
   </g>
   <g id="patch_33">
    <path d="M 236.394059 512.64 
L 248.22359 512.64 
L 248.22359 405.955406 
L 236.394059 405.955406 
z
" clip-path="url(#p2f914c4a75)" style="fill: #e5e5e5; opacity: 0.3; stroke: #ffffff; stroke-linejoin: miter"/>
   </g>
   <g id="patch_34">
    <path d="M 249.537982 512.64 
L 261.367513 512.64 
L 261.367513 399.981069 
L 249.537982 399.981069 
z
" clip-path="url(#p2f914c4a75)" style="fill: #e5e5e5; opacity: 0.3; stroke: #ffffff; stroke-linejoin: miter"/>
   </g>
   <g id="patch_35">
    <path d="M 262.681905 512.64 
L 274.511436 512.64 
L 274.511436 355.600278 
L 262.681905 355.600278 
z
" clip-path="url(#p2f914c4a75)" style="fill: #e5e5e5; opacity: 0.3; stroke: #ffffff; stroke-linejoin: miter"/>
   </g>
   <g id="patch_36">
    <path d="M 275.825828 512.64 
L 287.655359 512.64 
L 287.655359 287.322138 
L 275.825828 287.322138 
z
" clip-path="url(#p2f914c4a75)" style="fill: #e5e5e5; opacity: 0.3; stroke: #ffffff; stroke-linejoin: miter"/>
   </g>
   <g id="patch_37">
    <path d="M 288.969751 512.64 
L 300.799282 512.64 
L 300.799282 268.54565 
L 288.969751 268.54565 
z
" clip-path="url(#p2f914c4a75)" style="fill: #e5e5e5; opacity: 0.3; stroke: #ffffff; stroke-linejoin: miter"/>
   </g>
   <g id="patch_38">
    <path d="M 302.113674 512.64 
L 313.943205 512.64 
L 313.943205 161.00758 
L 302.113674 161.00758 
z
" clip-path="url(#p2f914c4a75)" style="fill: #e5e5e5; opacity: 0.3; stroke: #ffffff; stroke-linejoin: miter"/>
   </g>
   <g id="patch_39">
    <path d="M 315.257597 512.64 
L 327.087128 512.64 
L 327.087128 164.421487 
L 315.257597 164.421487 
z
" clip-path="url(#p2f914c4a75)" style="fill: #e5e5e5; opacity: 0.3; stroke: #ffffff; stroke-linejoin: miter"/>
   </g>
   <g id="patch_40">
    <path d="M 328.40152 512.64 
L 340.231051 512.64 
L 340.231051 206.241847 
L 328.40152 206.241847 
z
" clip-path="url(#p2f914c4a75)" style="fill: #e5e5e5; opacity: 0.3; stroke: #ffffff; stroke-linejoin: miter"/>
   </g>
   <g id="patch_41">
    <path d="M 341.545443 512.64 
L 353.374974 512.64 
L 353.374974 134.549801 
L 341.545443 134.549801 
z
" clip-path="url(#p2f914c4a75)" style="fill: #e5e5e5; opacity: 0.3; stroke: #ffffff; stroke-linejoin: miter"/>
   </g>
   <g id="patch_42">
    <path d="M 472.984673 512.64 
L 484.814204 512.64 
L 484.814204 294.149952 
L 472.984673 294.149952 
z
" clip-path="url(#p2f914c4a75)" style="fill: #7552cc; opacity: 0.3; stroke: #ffffff; stroke-linejoin: miter"/>
   </g>
   <g id="patch_43">
    <path d="M 486.128596 512.64 
L 497.958127 512.64 
L 497.958127 384.618488 
L 486.128596 384.618488 
z
" clip-path="url(#p2f914c4a75)" style="fill: #7552cc; opacity: 0.3; stroke: #ffffff; stroke-linejoin: miter"/>
   </g>
   <g id="patch_44">
    <path d="M 499.272519 512.64 
L 511.10205 512.64 
L 511.10205 431.559709 
L 499.272519 431.559709 
z
" clip-path="url(#p2f914c4a75)" style="fill: #7552cc; opacity: 0.3; stroke: #ffffff; stroke-linejoin: miter"/>
   </g>
   <g id="patch_45">
    <path d="M 512.416442 512.64 
L 524.245973 512.64 
L 524.245973 465.698779 
L 512.416442 465.698779 
z
" clip-path="url(#p2f914c4a75)" style="fill: #7552cc; opacity: 0.3; stroke: #ffffff; stroke-linejoin: miter"/>
   </g>
   <g id="patch_46">
    <path d="M 525.560365 512.64 
L 537.389896 512.64 
L 537.389896 494.716988 
L 525.560365 494.716988 
z
" clip-path="url(#p2f914c4a75)" style="fill: #7552cc; opacity: 0.3; stroke: #ffffff; stroke-linejoin: miter"/>
   </g>
   <g id="patch_47">
    <path d="M 538.704288 512.64 
L 550.533819 512.64 
L 550.533819 497.277419 
L 538.704288 497.277419 
z
" clip-path="url(#p2f914c4a75)" style="fill: #7552cc; opacity: 0.3; stroke: #ffffff; stroke-linejoin: miter"/>
   </g>
   <g id="patch_48">
    <path d="M 551.848211 512.64 
L 563.677742 512.64 
L 563.677742 503.251756 
L 551.848211 503.251756 
z
" clip-path="url(#p2f914c4a75)" style="fill: #7552cc; opacity: 0.3; stroke: #ffffff; stroke-linejoin: miter"/>
   </g>
   <g id="patch_49">
    <path d="M 564.992134 512.64 
L 576.821665 512.64 
L 576.821665 510.933047 
L 564.992134 510.933047 
z
" clip-path="url(#p2f914c4a75)" style="fill: #7552cc; opacity: 0.3; stroke: #ffffff; stroke-linejoin: miter"/>
   </g>
   <g id="patch_50">
    <path d="M 578.136058 512.64 
L 589.965588 512.64 
L 589.965588 510.933047 
L 578.136058 510.933047 
z
" clip-path="url(#p2f914c4a75)" style="fill: #7552cc; opacity: 0.3; stroke: #ffffff; stroke-linejoin: miter"/>
   </g>
   <g id="patch_51">
    <path d="M 591.279981 512.64 
L 603.109511 512.64 
L 603.109511 512.64 
L 591.279981 512.64 
z
" clip-path="url(#p2f914c4a75)" style="fill: #7552cc; opacity: 0.3; stroke: #ffffff; stroke-linejoin: miter"/>
   </g>
   <g id="patch_52">
    <path d="M 604.423904 512.64 
L 616.253434 512.64 
L 616.253434 509.226093 
L 604.423904 509.226093 
z
" clip-path="url(#p2f914c4a75)" style="fill: #7552cc; opacity: 0.3; stroke: #ffffff; stroke-linejoin: miter"/>
   </g>
   <g id="patch_53">
    <path d="M -39.628325 512.64 
L -27.798794 512.64 
L -27.798794 510.933047 
L -39.628325 510.933047 
z
" clip-path="url(#p2f914c4a75)" style="fill: #8db9ca; opacity: 0.3; stroke: #ffffff; stroke-linejoin: miter"/>
   </g>
   <g id="patch_54">
    <path d="M -26.484402 512.64 
L -14.654871 512.64 
L -14.654871 512.64 
L -26.484402 512.64 
z
" clip-path="url(#p2f914c4a75)" style="fill: #8db9ca; opacity: 0.3; stroke: #ffffff; stroke-linejoin: miter"/>
   </g>
   <g id="patch_55">
    <path d="M -13.340479 512.64 
L -1.510948 512.64 
L -1.510948 512.64 
L -13.340479 512.64 
z
" clip-path="url(#p2f914c4a75)" style="fill: #8db9ca; opacity: 0.3; stroke: #ffffff; stroke-linejoin: miter"/>
   </g>
   <g id="patch_56">
    <path d="M -0.196556 512.64 
L 11.632975 512.64 
L 11.632975 510.07957 
L -0.196556 510.07957 
z
" clip-path="url(#p2f914c4a75)" style="fill: #8db9ca; opacity: 0.3; stroke: #ffffff; stroke-linejoin: miter"/>
   </g>
   <g id="patch_57">
    <path d="M 12.947367 512.64 
L 24.776898 512.64 
L 24.776898 510.933047 
L 12.947367 510.933047 
z
" clip-path="url(#p2f914c4a75)" style="fill: #8db9ca; opacity: 0.3; stroke: #ffffff; stroke-linejoin: miter"/>
   </g>
   <g id="patch_58">
    <path d="M 26.091291 512.64 
L 37.920821 512.64 
L 37.920821 510.933047 
L 26.091291 510.933047 
z
" clip-path="url(#p2f914c4a75)" style="fill: #8db9ca; opacity: 0.3; stroke: #ffffff; stroke-linejoin: miter"/>
   </g>
   <g id="patch_59">
    <path d="M 39.235214 512.64 
L 51.064744 512.64 
L 51.064744 512.64 
L 39.235214 512.64 
z
" clip-path="url(#p2f914c4a75)" style="fill: #8db9ca; opacity: 0.3; stroke: #ffffff; stroke-linejoin: miter"/>
   </g>
   <g id="patch_60">
    <path d="M 52.379137 512.64 
L 64.208667 512.64 
L 64.208667 510.933047 
L 52.379137 510.933047 
z
" clip-path="url(#p2f914c4a75)" style="fill: #8db9ca; opacity: 0.3; stroke: #ffffff; stroke-linejoin: miter"/>
   </g>
   <g id="patch_61">
    <path d="M 65.52306 512.64 
L 77.35259 512.64 
L 77.35259 511.786523 
L 65.52306 511.786523 
z
" clip-path="url(#p2f914c4a75)" style="fill: #8db9ca; opacity: 0.3; stroke: #ffffff; stroke-linejoin: miter"/>
   </g>
   <g id="patch_62">
    <path d="M 78.666983 512.64 
L 90.496513 512.64 
L 90.496513 509.226093 
L 78.666983 509.226093 
z
" clip-path="url(#p2f914c4a75)" style="fill: #8db9ca; opacity: 0.3; stroke: #ffffff; stroke-linejoin: miter"/>
   </g>
   <g id="patch_63">
    <path d="M 91.810906 512.64 
L 103.640436 512.64 
L 103.640436 507.51914 
L 91.810906 507.51914 
z
" clip-path="url(#p2f914c4a75)" style="fill: #8db9ca; opacity: 0.3; stroke: #ffffff; stroke-linejoin: miter"/>
   </g>
   <g id="patch_64">
    <path d="M 104.954829 512.64 
L 116.784359 512.64 
L 116.784359 510.933047 
L 104.954829 510.933047 
z
" clip-path="url(#p2f914c4a75)" style="fill: #8db9ca; opacity: 0.3; stroke: #ffffff; stroke-linejoin: miter"/>
   </g>
   <g id="patch_65">
    <path d="M 118.098752 512.64 
L 129.928282 512.64 
L 129.928282 509.226093 
L 118.098752 509.226093 
z
" clip-path="url(#p2f914c4a75)" style="fill: #8db9ca; opacity: 0.3; stroke: #ffffff; stroke-linejoin: miter"/>
   </g>
   <g id="patch_66">
    <path d="M 131.242675 512.64 
L 143.072205 512.64 
L 143.072205 507.51914 
L 131.242675 507.51914 
z
" clip-path="url(#p2f914c4a75)" style="fill: #8db9ca; opacity: 0.3; stroke: #ffffff; stroke-linejoin: miter"/>
   </g>
   <g id="patch_67">
    <path d="M 144.386598 512.64 
L 156.216128 512.64 
L 156.216128 504.105233 
L 144.386598 504.105233 
z
" clip-path="url(#p2f914c4a75)" style="fill: #8db9ca; opacity: 0.3; stroke: #ffffff; stroke-linejoin: miter"/>
   </g>
   <g id="patch_68">
    <path d="M 157.530521 512.64 
L 169.360051 512.64 
L 169.360051 496.423942 
L 157.530521 496.423942 
z
" clip-path="url(#p2f914c4a75)" style="fill: #8db9ca; opacity: 0.3; stroke: #ffffff; stroke-linejoin: miter"/>
   </g>
   <g id="patch_69">
    <path d="M 170.674444 512.64 
L 182.503974 512.64 
L 182.503974 486.182221 
L 170.674444 486.182221 
z
" clip-path="url(#p2f914c4a75)" style="fill: #8db9ca; opacity: 0.3; stroke: #ffffff; stroke-linejoin: miter"/>
   </g>
   <g id="patch_70">
    <path d="M 183.818367 512.64 
L 195.647898 512.64 
L 195.647898 474.233546 
L 183.818367 474.233546 
z
" clip-path="url(#p2f914c4a75)" style="fill: #8db9ca; opacity: 0.3; stroke: #ffffff; stroke-linejoin: miter"/>
   </g>
   <g id="patch_71">
    <path d="M 196.96229 512.64 
L 208.791821 512.64 
L 208.791821 477.647453 
L 196.96229 477.647453 
z
" clip-path="url(#p2f914c4a75)" style="fill: #8db9ca; opacity: 0.3; stroke: #ffffff; stroke-linejoin: miter"/>
   </g>
   <g id="patch_72">
    <path d="M 210.106213 512.64 
L 221.935744 512.64 
L 221.935744 431.559709 
L 210.106213 431.559709 
z
" clip-path="url(#p2f914c4a75)" style="fill: #8db9ca; opacity: 0.3; stroke: #ffffff; stroke-linejoin: miter"/>
   </g>
   <g id="patch_73">
    <path d="M 223.250136 512.64 
L 235.079667 512.64 
L 235.079667 431.559709 
L 223.250136 431.559709 
z
" clip-path="url(#p2f914c4a75)" style="fill: #8db9ca; opacity: 0.3; stroke: #ffffff; stroke-linejoin: miter"/>
   </g>
   <g id="patch_74">
    <path d="M 236.394059 512.64 
L 248.22359 512.64 
L 248.22359 405.955406 
L 236.394059 405.955406 
z
" clip-path="url(#p2f914c4a75)" style="fill: #8db9ca; opacity: 0.3; stroke: #ffffff; stroke-linejoin: miter"/>
   </g>
   <g id="patch_75">
    <path d="M 249.537982 512.64 
L 261.367513 512.64 
L 261.367513 399.981069 
L 249.537982 399.981069 
z
" clip-path="url(#p2f914c4a75)" style="fill: #8db9ca; opacity: 0.3; stroke: #ffffff; stroke-linejoin: miter"/>
   </g>
   <g id="patch_76">
    <path d="M 262.681905 512.64 
L 274.511436 512.64 
L 274.511436 355.600278 
L 262.681905 355.600278 
z
" clip-path="url(#p2f914c4a75)" style="fill: #8db9ca; opacity: 0.3; stroke: #ffffff; stroke-linejoin: miter"/>
   </g>
   <g id="line2d_18">
    <path d="M -1 511.589254 
L 11.442761 511.047811 
L 18.853003 510.945244 
L 26.263245 511.040326 
L 37.378607 511.475262 
L 48.49397 511.882307 
L 55.904212 511.900804 
L 67.019575 511.588087 
L 74.429817 511.187578 
L 81.840059 510.536681 
L 92.955422 509.328821 
L 96.660543 509.058252 
L 100.365664 508.930205 
L 104.070785 508.950684 
L 111.481027 509.289857 
L 118.891269 509.595318 
L 122.59639 509.588875 
L 126.301511 509.439254 
L 130.006632 509.146135 
L 133.711753 508.718632 
L 137.416874 508.160109 
L 141.121995 507.456441 
L 144.827116 506.573893 
L 148.532237 505.468713 
L 152.237358 504.104672 
L 155.942479 502.470209 
L 159.6476 500.586437 
L 163.352721 498.501816 
L 170.762963 493.962763 
L 181.878326 486.748449 
L 189.288568 481.722154 
L 192.993689 479.077237 
L 196.69881 476.242548 
L 200.403931 473.086138 
L 204.109052 469.45998 
L 207.814173 465.255562 
L 211.519294 460.463487 
L 215.224415 455.203229 
L 222.634657 444.206257 
L 226.339778 438.920748 
L 230.044899 433.916404 
L 244.865383 414.645596 
L 248.570504 409.274104 
L 252.275625 403.422648 
L 255.980746 396.938183 
L 259.685867 389.628547 
L 263.390988 381.289001 
L 267.096109 371.757895 
L 270.80123 360.977051 
L 274.506351 349.02584 
L 278.211472 336.107002 
L 281.916593 322.484756 
L 289.326835 294.020042 
L 304.147319 235.45517 
L 307.85244 221.833881 
L 311.557561 209.609908 
L 315.262682 199.28166 
L 318.967803 191.109329 
L 322.672924 185.017278 
L 326.378045 180.58811 
L 330.083166 177.144322 
L 333.788287 173.892852 
L 337.493408 170.100338 
L 341.198529 165.26183 
L 344.90365 159.22061 
L 348.608771 152.201428 
L 352.313892 144.743117 
L 356.019013 137.553416 
L 359.724134 131.339204 
L 363.429255 126.671118 
L 367.134376 123.919468 
L 370.839497 123.261543 
L 374.544618 124.728307 
L 378.249739 128.246895 
L 381.95486 133.649302 
L 385.659981 140.64917 
L 389.365102 148.818696 
L 396.775344 166.407353 
L 400.480465 174.678691 
L 404.185586 182.017532 
L 407.890707 188.176933 
L 411.595828 192.991462 
L 415.300949 196.262496 
L 419.00607 197.685132 
L 422.711191 196.891987 
L 426.416312 193.631692 
L 430.121432 188.016869 
L 433.826553 180.713547 
L 437.531674 172.945049 
L 441.236795 166.261223 
L 444.941916 162.144199 
L 448.647037 161.61698 
L 452.352158 165.029718 
L 456.057279 172.10865 
L 459.7624 182.215312 
L 463.467521 194.662704 
L 467.172642 208.930726 
L 470.877763 224.709407 
L 474.582884 241.809292 
L 478.288005 260.039283 
L 485.698247 298.759066 
L 493.108489 338.105106 
L 496.81361 357.114518 
L 500.518731 375.25894 
L 504.223852 392.279778 
L 507.928973 407.983944 
L 511.634094 422.254882 
L 515.339215 435.051595 
L 519.044336 446.396268 
L 522.749457 456.356141 
L 526.454578 465.025052 
L 530.159699 472.507631 
L 533.86482 478.907956 
L 537.569941 484.32454 
L 541.275062 488.852333 
L 544.980183 492.58942 
L 548.685304 495.643412 
L 552.390425 498.13267 
L 556.095546 500.180536 
L 559.800667 501.904398 
L 563.505788 503.4035 
L 570.91603 505.982888 
L 578.326272 508.139279 
L 582.031393 509.037385 
L 585.736514 509.79349 
L 589.441635 510.397535 
L 593.146756 510.84734 
L 596.851877 511.148576 
L 604.262119 511.372288 
L 622.787724 511.371581 
L 633.903087 511.929283 
L 645.01845 512.428385 
L 656.133813 512.607182 
L 663.544055 512.633431 
L 663.544055 512.633431 
" clip-path="url(#p2f914c4a75)" style="fill: none; stroke: #000000; stroke-width: 1.5; stroke-linecap: round"/>
   </g>
   <g id="line2d_19">
    <path d="M 354.550592 512.64 
L 354.550592 141.988616 
" clip-path="url(#p2f914c4a75)" style="fill: none; stroke: #000000; stroke-width: 4; stroke-linecap: round"/>
   </g>
   <g id="line2d_20">
    <path d="M 473.114463 512.64 
L 473.114463 241.809292 
" clip-path="url(#p2f914c4a75)" style="fill: none; stroke: #e53238; stroke-width: 4; stroke-linecap: round"/>
   </g>
   <g id="line2d_21">
    <path d="M 274.506351 512.64 
L 274.506351 353.46104 
" clip-path="url(#p2f914c4a75)" style="fill: none; stroke: #0064d2; stroke-width: 4; stroke-linecap: round"/>
   </g>
   <g id="line2d_22">
    <path d="M 619.082603 501.552 
" clip-path="url(#p2f914c4a75)" style="fill: none; stroke: #e53238; stroke-width: 1.5; stroke-linecap: round"/>
    <defs>
     <path id="mc716d6a6b4" d="M 0 -6 
L -1.347084 -1.854102 
L -5.706339 -1.854102 
L -2.179628 0.708204 
L -3.526712 4.854102 
L -0 2.291796 
L 3.526712 4.854102 
L 2.179628 0.708204 
L 5.706339 -1.854102 
L 1.347084 -1.854102 
z
" style="stroke: #e53238; stroke-linejoin: bevel"/>
    </defs>
    <g clip-path="url(#p2f914c4a75)">
     <use xlink:href="#mc716d6a6b4" x="619.082603" y="501.552" style="fill: #e53238; stroke: #e53238; stroke-linejoin: bevel"/>
    </g>
   </g>
   <g id="line2d_23">
    <path d="M 531.260526 457.2 
" clip-path="url(#p2f914c4a75)" style="fill: none; stroke: #0064d2; stroke-width: 1.5; stroke-linecap: round"/>
    <defs>
     <path id="maf43b2da87" d="M -0 7.071068 
L 4.242641 0 
L -0 -7.071068 
L -4.242641 -0 
z
" style="stroke: #0064d2; stroke-linejoin: miter"/>
    </defs>
    <g clip-path="url(#p2f914c4a75)">
     <use xlink:href="#maf43b2da87" x="531.260526" y="457.2" style="fill: #0064d2; stroke: #0064d2; stroke-linejoin: miter"/>
    </g>
   </g>
   <g id="line2d_24">
    <path d="M 518.044737 418.392 
" clip-path="url(#p2f914c4a75)" style="fill: none; stroke: #e53238; stroke-width: 1.5; stroke-linecap: round"/>
    <g clip-path="url(#p2f914c4a75)">
     <use xlink:href="#mc716d6a6b4" x="518.044737" y="418.392" style="fill: #e53238; stroke: #e53238; stroke-linejoin: bevel"/>
    </g>
   </g>
   <g id="line2d_25">
    <path d="M 492.053684 238.212 
" clip-path="url(#p2f914c4a75)" style="fill: none; stroke: #e53238; stroke-width: 1.5; stroke-linecap: round"/>
    <g clip-path="url(#p2f914c4a75)">
     <use xlink:href="#mc716d6a6b4" x="492.053684" y="238.212" style="fill: #e53238; stroke: #e53238; stroke-linejoin: bevel"/>
    </g>
   </g>
   <g id="line2d_26">
    <path d="M 492.053684 257.616 
" clip-path="url(#p2f914c4a75)" style="fill: none; stroke: #0064d2; stroke-width: 1.5; stroke-linecap: round"/>
    <g clip-path="url(#p2f914c4a75)">
     <use xlink:href="#maf43b2da87" x="492.053684" y="257.616" style="fill: #0064d2; stroke: #0064d2; stroke-linejoin: miter"/>
    </g>
   </g>
   <g id="line2d_27">
    <path d="M 492.053684 279.792 
" clip-path="url(#p2f914c4a75)" style="fill: none; stroke: #e53238; stroke-width: 1.5; stroke-linecap: round"/>
    <g clip-path="url(#p2f914c4a75)">
     <use xlink:href="#mc716d6a6b4" x="492.053684" y="279.792" style="fill: #e53238; stroke: #e53238; stroke-linejoin: bevel"/>
    </g>
   </g>
   <g id="line2d_28">
    <path d="M 492.053684 296.424 
" clip-path="url(#p2f914c4a75)" style="fill: none; stroke: #e53238; stroke-width: 1.5; stroke-linecap: round"/>
    <g clip-path="url(#p2f914c4a75)">
     <use xlink:href="#mc716d6a6b4" x="492.053684" y="296.424" style="fill: #e53238; stroke: #e53238; stroke-linejoin: bevel"/>
    </g>
   </g>
   <g id="line2d_29">
    <path d="M 478.397368 163.368 
" clip-path="url(#p2f914c4a75)" style="fill: none; stroke: #e53238; stroke-width: 1.5; stroke-linecap: round"/>
    <g clip-path="url(#p2f914c4a75)">
     <use xlink:href="#mc716d6a6b4" x="478.397368" y="163.368" style="fill: #e53238; stroke: #e53238; stroke-linejoin: bevel"/>
    </g>
   </g>
   <g id="line2d_30">
    <path d="M 478.397368 180 
" clip-path="url(#p2f914c4a75)" style="fill: none; stroke: #e53238; stroke-width: 1.5; stroke-linecap: round"/>
    <g clip-path="url(#p2f914c4a75)">
     <use xlink:href="#mc716d6a6b4" x="478.397368" y="180" style="fill: #e53238; stroke: #e53238; stroke-linejoin: bevel"/>
    </g>
   </g>
   <g id="line2d_31">
    <path d="M 478.397368 196.632 
" clip-path="url(#p2f914c4a75)" style="fill: none; stroke: #e53238; stroke-width: 1.5; stroke-linecap: round"/>
    <g clip-path="url(#p2f914c4a75)">
     <use xlink:href="#mc716d6a6b4" x="478.397368" y="196.632" style="fill: #e53238; stroke: #e53238; stroke-linejoin: bevel"/>
    </g>
   </g>
   <g id="line2d_32">
    <path d="M 478.397368 213.264 
" clip-path="url(#p2f914c4a75)" style="fill: none; stroke: #e53238; stroke-width: 1.5; stroke-linecap: round"/>
    <g clip-path="url(#p2f914c4a75)">
     <use xlink:href="#mc716d6a6b4" x="478.397368" y="213.264" style="fill: #e53238; stroke: #e53238; stroke-linejoin: bevel"/>
    </g>
   </g>
   <g id="line2d_33">
    <path d="M 478.397368 229.896 
" clip-path="url(#p2f914c4a75)" style="fill: none; stroke: #e53238; stroke-width: 1.5; stroke-linecap: round"/>
    <g clip-path="url(#p2f914c4a75)">
     <use xlink:href="#mc716d6a6b4" x="478.397368" y="229.896" style="fill: #e53238; stroke: #e53238; stroke-linejoin: bevel"/>
    </g>
   </g>
   <g id="line2d_34">
    <path d="M 281.628947 274.248 
" clip-path="url(#p2f914c4a75)" style="fill: none; stroke: #e53238; stroke-width: 1.5; stroke-linecap: round"/>
    <g clip-path="url(#p2f914c4a75)">
     <use xlink:href="#mc716d6a6b4" x="281.628947" y="274.248" style="fill: #e53238; stroke: #e53238; stroke-linejoin: bevel"/>
    </g>
   </g>
   <g id="line2d_35">
    <path d="M 281.628947 252.072 
" clip-path="url(#p2f914c4a75)" style="fill: none; stroke: #0064d2; stroke-width: 1.5; stroke-linecap: round"/>
    <g clip-path="url(#p2f914c4a75)">
     <use xlink:href="#maf43b2da87" x="281.628947" y="252.072" style="fill: #0064d2; stroke: #0064d2; stroke-linejoin: miter"/>
    </g>
   </g>
   <g id="line2d_36">
    <path d="M 268.413158 340.776 
" clip-path="url(#p2f914c4a75)" style="fill: none; stroke: #0064d2; stroke-width: 1.5; stroke-linecap: round"/>
    <g clip-path="url(#p2f914c4a75)">
     <use xlink:href="#maf43b2da87" x="268.413158" y="340.776" style="fill: #0064d2; stroke: #0064d2; stroke-linejoin: miter"/>
    </g>
   </g>
   <g id="line2d_37">
    <path d="M 268.413158 318.6 
" clip-path="url(#p2f914c4a75)" style="fill: none; stroke: #0064d2; stroke-width: 1.5; stroke-linecap: round"/>
    <g clip-path="url(#p2f914c4a75)">
     <use xlink:href="#maf43b2da87" x="268.413158" y="318.6" style="fill: #0064d2; stroke: #0064d2; stroke-linejoin: miter"/>
    </g>
   </g>
   <g id="line2d_38">
    <path d="M 268.413158 296.424 
" clip-path="url(#p2f914c4a75)" style="fill: none; stroke: #0064d2; stroke-width: 1.5; stroke-linecap: round"/>
    <g clip-path="url(#p2f914c4a75)">
     <use xlink:href="#maf43b2da87" x="268.413158" y="296.424" style="fill: #0064d2; stroke: #0064d2; stroke-linejoin: miter"/>
    </g>
   </g>
   <g id="line2d_39">
    <path d="M 268.413158 274.248 
" clip-path="url(#p2f914c4a75)" style="fill: none; stroke: #0064d2; stroke-width: 1.5; stroke-linecap: round"/>
    <g clip-path="url(#p2f914c4a75)">
     <use xlink:href="#maf43b2da87" x="268.413158" y="274.248" style="fill: #0064d2; stroke: #0064d2; stroke-linejoin: miter"/>
    </g>
   </g>
   <g id="line2d_40">
    <path d="M 255.637895 374.04 
" clip-path="url(#p2f914c4a75)" style="fill: none; stroke: #0064d2; stroke-width: 1.5; stroke-linecap: round"/>
    <g clip-path="url(#p2f914c4a75)">
     <use xlink:href="#maf43b2da87" x="255.637895" y="374.04" style="fill: #0064d2; stroke: #0064d2; stroke-linejoin: miter"/>
    </g>
   </g>
   <g id="line2d_41">
    <path d="M 241.981579 390.672 
" clip-path="url(#p2f914c4a75)" style="fill: none; stroke: #0064d2; stroke-width: 1.5; stroke-linecap: round"/>
    <g clip-path="url(#p2f914c4a75)">
     <use xlink:href="#maf43b2da87" x="241.981579" y="390.672" style="fill: #0064d2; stroke: #0064d2; stroke-linejoin: miter"/>
    </g>
   </g>
   <g id="line2d_42">
    <path d="M 241.981579 368.496 
" clip-path="url(#p2f914c4a75)" style="fill: none; stroke: #0064d2; stroke-width: 1.5; stroke-linecap: round"/>
    <g clip-path="url(#p2f914c4a75)">
     <use xlink:href="#maf43b2da87" x="241.981579" y="368.496" style="fill: #0064d2; stroke: #0064d2; stroke-linejoin: miter"/>
    </g>
   </g>
   <g id="line2d_43">
    <path d="M 229.206316 412.848 
" clip-path="url(#p2f914c4a75)" style="fill: none; stroke: #0064d2; stroke-width: 1.5; stroke-linecap: round"/>
    <g clip-path="url(#p2f914c4a75)">
     <use xlink:href="#maf43b2da87" x="229.206316" y="412.848" style="fill: #0064d2; stroke: #0064d2; stroke-linejoin: miter"/>
    </g>
   </g>
   <g id="line2d_44">
    <path d="M 189.118421 457.2 
" clip-path="url(#p2f914c4a75)" style="fill: none; stroke: #0064d2; stroke-width: 1.5; stroke-linecap: round"/>
    <g clip-path="url(#p2f914c4a75)">
     <use xlink:href="#maf43b2da87" x="189.118421" y="457.2" style="fill: #0064d2; stroke: #0064d2; stroke-linejoin: miter"/>
    </g>
   </g>
   <g id="line2d_45">
    <path d="M 175.902632 473.832 
" clip-path="url(#p2f914c4a75)" style="fill: none; stroke: #e53238; stroke-width: 1.5; stroke-linecap: round"/>
    <g clip-path="url(#p2f914c4a75)">
     <use xlink:href="#mc716d6a6b4" x="175.902632" y="473.832" style="fill: #e53238; stroke: #e53238; stroke-linejoin: bevel"/>
    </g>
   </g>
   <g id="patch_77">
    <path d="M 90 512.64 
L 90 69.12 
" style="fill: none; stroke: #262626; stroke-width: 1.25; stroke-linejoin: miter; stroke-linecap: square"/>
   </g>
   <g id="patch_78">
    <path d="M 648 512.64 
L 648 69.12 
" style="fill: none; stroke: #262626; stroke-width: 1.25; stroke-linejoin: miter; stroke-linecap: square"/>
   </g>
   <g id="patch_79">
    <path d="M 90 512.64 
L 648 512.64 
" style="fill: none; stroke: #262626; stroke-width: 1.25; stroke-linejoin: miter; stroke-linecap: square"/>
   </g>
   <g id="patch_80">
    <path d="M 90 69.12 
L 648 69.12 
" style="fill: none; stroke: #262626; stroke-width: 1.25; stroke-linejoin: miter; stroke-linecap: square"/>
   </g>
  </g>
 </g>
 <defs>
  <clipPath id="p2f914c4a75">
   <rect x="90" y="69.12" width="558" height="443.52"/>
  </clipPath>
 </defs>
</svg>
