<?xml version="1.0" encoding="utf-8" standalone="no"?>
<!DOCTYPE svg PUBLIC "-//W3C//DTD SVG 1.1//EN"
  "http://www.w3.org/Graphics/SVG/1.1/DTD/svg11.dtd">
<svg xmlns:xlink="http://www.w3.org/1999/xlink" width="576pt" height="504pt" viewBox="0 0 576 504" xmlns="http://www.w3.org/2000/svg" version="1.1">
 <metadata>
  <rdf:RDF xmlns:dc="http://purl.org/dc/elements/1.1/" xmlns:cc="http://creativecommons.org/ns#" xmlns:rdf="http://www.w3.org/1999/02/22-rdf-syntax-ns#">
   <cc:Work>
    <dc:type rdf:resource="http://purl.org/dc/dcmitype/StillImage"/>
    <dc:date>2024-01-12T10:41:09.731511</dc:date>
    <dc:format>image/svg+xml</dc:format>
    <dc:creator>
     <cc:Agent>
      <dc:title>Matplotlib v3.5.2, https://matplotlib.org/</dc:title>
     </cc:Agent>
    </dc:creator>
   </cc:Work>
  </rdf:RDF>
 </metadata>
 <defs>
  <style type="text/css">*{stroke-linejoin: round; stroke-linecap: butt}</style>
 </defs>
 <g id="figure_1">
  <g id="patch_1">
   <path d="M 0 504 
L 576 504 
L 576 0 
L 0 0 
z
" style="fill: #ffffff"/>
  </g>
  <g id="axes_1">
   <g id="patch_2">
    <path d="M 72 448.56 
L 518.4 448.56 
L 518.4 60.48 
L 72 60.48 
z
" style="fill: #ffffff"/>
   </g>
   <g id="PathCollection_1">
    <defs>
     <path id="m454bc00834" d="M 0 -4.743416 
L -4.511257 -1.465796 
L -2.78811 3.837505 
L 2.78811 3.837505 
L 4.511257 -1.465796 
z
" style="stroke: #0064d2"/>
    </defs>
    <g clip-path="url(#p1e19c4390d)">
     <use xlink:href="#m454bc00834" x="265.131638" y="407.051953" style="fill: #0064d2; stroke: #0064d2"/>
     <use xlink:href="#m454bc00834" x="241.809529" y="181.189876" style="fill: #0064d2; stroke: #0064d2"/>
     <use xlink:href="#m454bc00834" x="328.394893" y="328.678265" style="fill: #0064d2; stroke: #0064d2"/>
     <use xlink:href="#m454bc00834" x="207.178763" y="360.048206" style="fill: #0064d2; stroke: #0064d2"/>
     <use xlink:href="#m454bc00834" x="277.377334" y="380.661278" style="fill: #0064d2; stroke: #0064d2"/>
     <use xlink:href="#m454bc00834" x="202.46968" y="208.65111" style="fill: #0064d2; stroke: #0064d2"/>
     <use xlink:href="#m454bc00834" x="218.726606" y="320.711026" style="fill: #0064d2; stroke: #0064d2"/>
     <use xlink:href="#m454bc00834" x="215.887143" y="355.404784" style="fill: #0064d2; stroke: #0064d2"/>
     <use xlink:href="#m454bc00834" x="227.488679" y="316.474992" style="fill: #0064d2; stroke: #0064d2"/>
     <use xlink:href="#m454bc00834" x="230.802004" y="339.000606" style="fill: #0064d2; stroke: #0064d2"/>
     <use xlink:href="#m454bc00834" x="223.328239" y="345.006034" style="fill: #0064d2; stroke: #0064d2"/>
     <use xlink:href="#m454bc00834" x="223.64755" y="321.210312" style="fill: #0064d2; stroke: #0064d2"/>
     <use xlink:href="#m454bc00834" x="288.137823" y="414.647705" style="fill: #0064d2; stroke: #0064d2"/>
     <use xlink:href="#m454bc00834" x="105.908304" y="251.73386" style="fill: #0064d2; stroke: #0064d2"/>
     <use xlink:href="#m454bc00834" x="105.594145" y="245.108787" style="fill: #0064d2; stroke: #0064d2"/>
     <use xlink:href="#m454bc00834" x="102.003149" y="257.080958" style="fill: #0064d2; stroke: #0064d2"/>
     <use xlink:href="#m454bc00834" x="92.290909" y="248.921381" style="fill: #0064d2; stroke: #0064d2"/>
     <use xlink:href="#m454bc00834" x="112.262611" y="252.896674" style="fill: #0064d2; stroke: #0064d2"/>
     <use xlink:href="#m454bc00834" x="104.391773" y="246.498099" style="fill: #0064d2; stroke: #0064d2"/>
     <use xlink:href="#m454bc00834" x="117.979408" y="235.399298" style="fill: #0064d2; stroke: #0064d2"/>
     <use xlink:href="#m454bc00834" x="109.700802" y="252.819927" style="fill: #0064d2; stroke: #0064d2"/>
     <use xlink:href="#m454bc00834" x="100.384136" y="246.322855" style="fill: #0064d2; stroke: #0064d2"/>
     <use xlink:href="#m454bc00834" x="110.950372" y="244.671077" style="fill: #0064d2; stroke: #0064d2"/>
     <use xlink:href="#m454bc00834" x="124.402386" y="232.272205" style="fill: #0064d2; stroke: #0064d2"/>
     <use xlink:href="#m454bc00834" x="243.121737" y="157.632297" style="fill: #0064d2; stroke: #0064d2"/>
     <use xlink:href="#m454bc00834" x="245.273606" y="157.591986" style="fill: #0064d2; stroke: #0064d2"/>
     <use xlink:href="#m454bc00834" x="269.962143" y="149.982586" style="fill: #0064d2; stroke: #0064d2"/>
     <use xlink:href="#m454bc00834" x="272.087019" y="150.227861" style="fill: #0064d2; stroke: #0064d2"/>
     <use xlink:href="#m454bc00834" x="247.444905" y="409.371172" style="fill: #0064d2; stroke: #0064d2"/>
     <use xlink:href="#m454bc00834" x="240.737643" y="386.583039" style="fill: #0064d2; stroke: #0064d2"/>
     <use xlink:href="#m454bc00834" x="118.147721" y="265.000154" style="fill: #0064d2; stroke: #0064d2"/>
     <use xlink:href="#m454bc00834" x="191.347714" y="370.203241" style="fill: #0064d2; stroke: #0064d2"/>
     <use xlink:href="#m454bc00834" x="201.426594" y="377.38742" style="fill: #0064d2; stroke: #0064d2"/>
     <use xlink:href="#m454bc00834" x="236.523602" y="365.405701" style="fill: #0064d2; stroke: #0064d2"/>
     <use xlink:href="#m454bc00834" x="265.801439" y="403.821959" style="fill: #0064d2; stroke: #0064d2"/>
     <use xlink:href="#m454bc00834" x="169.738908" y="383.864936" style="fill: #0064d2; stroke: #0064d2"/>
     <use xlink:href="#m454bc00834" x="296.894489" y="382.845182" style="fill: #0064d2; stroke: #0064d2"/>
     <use xlink:href="#m454bc00834" x="207.178763" y="360.048206" style="fill: #0064d2; stroke: #0064d2"/>
    </g>
   </g>
   <g id="PathCollection_2">
    <defs>
     <path id="ma149123cb4" d="M 0 4.472136 
C 1.186024 4.472136 2.323632 4.000923 3.162278 3.162278 
C 4.000923 2.323632 4.472136 1.186024 4.472136 0 
C 4.472136 -1.186024 4.000923 -2.323632 3.162278 -3.162278 
C 2.323632 -4.000923 1.186024 -4.472136 0 -4.472136 
C -1.186024 -4.472136 -2.323632 -4.000923 -3.162278 -3.162278 
C -4.000923 -2.323632 -4.472136 -1.186024 -4.472136 0 
C -4.472136 1.186024 -4.000923 2.323632 -3.162278 3.162278 
C -2.323632 4.000923 -1.186024 4.472136 0 4.472136 
z
" style="stroke: #e53238"/>
    </defs>
    <g clip-path="url(#p1e19c4390d)">
     <use xlink:href="#ma149123cb4" x="321.908248" y="315.496483" style="fill: #e53238; stroke: #e53238"/>
     <use xlink:href="#ma149123cb4" x="208.16668" y="335.083525" style="fill: #e53238; stroke: #e53238"/>
     <use xlink:href="#ma149123cb4" x="286.263201" y="225.978331" style="fill: #e53238; stroke: #e53238"/>
     <use xlink:href="#ma149123cb4" x="246.13854" y="254.576106" style="fill: #e53238; stroke: #e53238"/>
     <use xlink:href="#ma149123cb4" x="267.20769" y="430.92" style="fill: #e53238; stroke: #e53238"/>
     <use xlink:href="#ma149123cb4" x="285.267402" y="391.062673" style="fill: #e53238; stroke: #e53238"/>
     <use xlink:href="#ma149123cb4" x="288.137823" y="414.647705" style="fill: #e53238; stroke: #e53238"/>
     <use xlink:href="#ma149123cb4" x="267.20769" y="430.92" style="fill: #e53238; stroke: #e53238"/>
     <use xlink:href="#ma149123cb4" x="481.547838" y="283.498284" style="fill: #e53238; stroke: #e53238"/>
     <use xlink:href="#ma149123cb4" x="472.651888" y="281.877524" style="fill: #e53238; stroke: #e53238"/>
     <use xlink:href="#ma149123cb4" x="454.979654" y="314.310646" style="fill: #e53238; stroke: #e53238"/>
     <use xlink:href="#ma149123cb4" x="498.109091" y="246.419852" style="fill: #e53238; stroke: #e53238"/>
     <use xlink:href="#ma149123cb4" x="496.296383" y="246.185472" style="fill: #e53238; stroke: #e53238"/>
     <use xlink:href="#ma149123cb4" x="490.166189" y="245.609819" style="fill: #e53238; stroke: #e53238"/>
     <use xlink:href="#ma149123cb4" x="484.867989" y="245.12927" style="fill: #e53238; stroke: #e53238"/>
     <use xlink:href="#ma149123cb4" x="468.018154" y="269.094951" style="fill: #e53238; stroke: #e53238"/>
     <use xlink:href="#ma149123cb4" x="240.41673" y="157.780167" style="fill: #e53238; stroke: #e53238"/>
     <use xlink:href="#ma149123cb4" x="267.249415" y="149.77146" style="fill: #e53238; stroke: #e53238"/>
     <use xlink:href="#ma149123cb4" x="313.599713" y="325.937885" style="fill: #e53238; stroke: #e53238"/>
     <use xlink:href="#ma149123cb4" x="292.777452" y="353.935383" style="fill: #e53238; stroke: #e53238"/>
     <use xlink:href="#ma149123cb4" x="250.437853" y="367.368734" style="fill: #e53238; stroke: #e53238"/>
     <use xlink:href="#ma149123cb4" x="223.986956" y="357.366315" style="fill: #e53238; stroke: #e53238"/>
     <use xlink:href="#ma149123cb4" x="240.069211" y="271.566613" style="fill: #e53238; stroke: #e53238"/>
     <use xlink:href="#ma149123cb4" x="248.501984" y="297.376067" style="fill: #e53238; stroke: #e53238"/>
     <use xlink:href="#ma149123cb4" x="265.649764" y="408.002394" style="fill: #e53238; stroke: #e53238"/>
     <use xlink:href="#ma149123cb4" x="274.972803" y="405.678515" style="fill: #e53238; stroke: #e53238"/>
     <use xlink:href="#ma149123cb4" x="199.759801" y="371.924792" style="fill: #e53238; stroke: #e53238"/>
     <use xlink:href="#ma149123cb4" x="273.709471" y="93.762666" style="fill: #e53238; stroke: #e53238"/>
     <use xlink:href="#ma149123cb4" x="288.684532" y="84.12937" style="fill: #e53238; stroke: #e53238"/>
     <use xlink:href="#ma149123cb4" x="298.899432" y="78.12" style="fill: #e53238; stroke: #e53238"/>
     <use xlink:href="#ma149123cb4" x="328.394893" y="328.678265" style="fill: #e53238; stroke: #e53238"/>
     <use xlink:href="#ma149123cb4" x="368.875641" y="273.381833" style="fill: #e53238; stroke: #e53238"/>
     <use xlink:href="#ma149123cb4" x="218.888527" y="350.447879" style="fill: #e53238; stroke: #e53238"/>
    </g>
   </g>
   <g id="matplotlib.axis_1">
    <g id="xtick_1">
     <g id="line2d_1">
      <defs>
       <path id="mcc7ad81766" d="M 0 0 
L 0 3.5 
" style="stroke: #000000; stroke-width: 0.8"/>
      </defs>
      <g>
       <use xlink:href="#mcc7ad81766" x="84.455486" y="448.56" style="stroke: #000000; stroke-width: 0.8"/>
      </g>
     </g>
     <g id="text_1">
      <!-- −1.5 -->
      <g transform="translate(66.243376 466.957656)scale(0.15 -0.15)">
       <defs>
        <path id="DejaVuSans-2212" d="M 678 2272 
L 4684 2272 
L 4684 1741 
L 678 1741 
L 678 2272 
z
" transform="scale(0.015625)"/>
        <path id="DejaVuSans-31" d="M 794 531 
L 1825 531 
L 1825 4091 
L 703 3866 
L 703 4441 
L 1819 4666 
L 2450 4666 
L 2450 531 
L 3481 531 
L 3481 0 
L 794 0 
L 794 531 
z
" transform="scale(0.015625)"/>
        <path id="DejaVuSans-2e" d="M 684 794 
L 1344 794 
L 1344 0 
L 684 0 
L 684 794 
z
" transform="scale(0.015625)"/>
        <path id="DejaVuSans-35" d="M 691 4666 
L 3169 4666 
L 3169 4134 
L 1269 4134 
L 1269 2991 
Q 1406 3038 1543 3061 
Q 1681 3084 1819 3084 
Q 2600 3084 3056 2656 
Q 3513 2228 3513 1497 
Q 3513 744 3044 326 
Q 2575 -91 1722 -91 
Q 1428 -91 1123 -41 
Q 819 9 494 109 
L 494 744 
Q 775 591 1075 516 
Q 1375 441 1709 441 
Q 2250 441 2565 725 
Q 2881 1009 2881 1497 
Q 2881 1984 2565 2268 
Q 2250 2553 1709 2553 
Q 1456 2553 1204 2497 
Q 953 2441 691 2322 
L 691 4666 
z
" transform="scale(0.015625)"/>
       </defs>
       <use xlink:href="#DejaVuSans-2212"/>
       <use xlink:href="#DejaVuSans-31" x="83.789062"/>
       <use xlink:href="#DejaVuSans-2e" x="147.412109"/>
       <use xlink:href="#DejaVuSans-35" x="179.199219"/>
      </g>
     </g>
    </g>
    <g id="xtick_2">
     <g id="line2d_2">
      <g>
       <use xlink:href="#mcc7ad81766" x="141.532497" y="448.56" style="stroke: #000000; stroke-width: 0.8"/>
      </g>
     </g>
     <g id="text_2">
      <!-- −1.0 -->
      <g transform="translate(123.320387 466.957656)scale(0.15 -0.15)">
       <defs>
        <path id="DejaVuSans-30" d="M 2034 4250 
Q 1547 4250 1301 3770 
Q 1056 3291 1056 2328 
Q 1056 1369 1301 889 
Q 1547 409 2034 409 
Q 2525 409 2770 889 
Q 3016 1369 3016 2328 
Q 3016 3291 2770 3770 
Q 2525 4250 2034 4250 
z
M 2034 4750 
Q 2819 4750 3233 4129 
Q 3647 3509 3647 2328 
Q 3647 1150 3233 529 
Q 2819 -91 2034 -91 
Q 1250 -91 836 529 
Q 422 1150 422 2328 
Q 422 3509 836 4129 
Q 1250 4750 2034 4750 
z
" transform="scale(0.015625)"/>
       </defs>
       <use xlink:href="#DejaVuSans-2212"/>
       <use xlink:href="#DejaVuSans-31" x="83.789062"/>
       <use xlink:href="#DejaVuSans-2e" x="147.412109"/>
       <use xlink:href="#DejaVuSans-30" x="179.199219"/>
      </g>
     </g>
    </g>
    <g id="xtick_3">
     <g id="line2d_3">
      <g>
       <use xlink:href="#mcc7ad81766" x="198.609507" y="448.56" style="stroke: #000000; stroke-width: 0.8"/>
      </g>
     </g>
     <g id="text_3">
      <!-- −0.5 -->
      <g transform="translate(180.397398 466.957656)scale(0.15 -0.15)">
       <use xlink:href="#DejaVuSans-2212"/>
       <use xlink:href="#DejaVuSans-30" x="83.789062"/>
       <use xlink:href="#DejaVuSans-2e" x="147.412109"/>
       <use xlink:href="#DejaVuSans-35" x="179.199219"/>
      </g>
     </g>
    </g>
    <g id="xtick_4">
     <g id="line2d_4">
      <g>
       <use xlink:href="#mcc7ad81766" x="255.686518" y="448.56" style="stroke: #000000; stroke-width: 0.8"/>
      </g>
     </g>
     <g id="text_4">
      <!-- 0.0 -->
      <g transform="translate(243.759175 466.957656)scale(0.15 -0.15)">
       <use xlink:href="#DejaVuSans-30"/>
       <use xlink:href="#DejaVuSans-2e" x="63.623047"/>
       <use xlink:href="#DejaVuSans-30" x="95.410156"/>
      </g>
     </g>
    </g>
    <g id="xtick_5">
     <g id="line2d_5">
      <g>
       <use xlink:href="#mcc7ad81766" x="312.763529" y="448.56" style="stroke: #000000; stroke-width: 0.8"/>
      </g>
     </g>
     <g id="text_5">
      <!-- 0.5 -->
      <g transform="translate(300.836185 466.957656)scale(0.15 -0.15)">
       <use xlink:href="#DejaVuSans-30"/>
       <use xlink:href="#DejaVuSans-2e" x="63.623047"/>
       <use xlink:href="#DejaVuSans-35" x="95.410156"/>
      </g>
     </g>
    </g>
    <g id="xtick_6">
     <g id="line2d_6">
      <g>
       <use xlink:href="#mcc7ad81766" x="369.84054" y="448.56" style="stroke: #000000; stroke-width: 0.8"/>
      </g>
     </g>
     <g id="text_6">
      <!-- 1.0 -->
      <g transform="translate(357.913196 466.957656)scale(0.15 -0.15)">
       <use xlink:href="#DejaVuSans-31"/>
       <use xlink:href="#DejaVuSans-2e" x="63.623047"/>
       <use xlink:href="#DejaVuSans-30" x="95.410156"/>
      </g>
     </g>
    </g>
    <g id="xtick_7">
     <g id="line2d_7">
      <g>
       <use xlink:href="#mcc7ad81766" x="426.917551" y="448.56" style="stroke: #000000; stroke-width: 0.8"/>
      </g>
     </g>
     <g id="text_7">
      <!-- 1.5 -->
      <g transform="translate(414.990207 466.957656)scale(0.15 -0.15)">
       <use xlink:href="#DejaVuSans-31"/>
       <use xlink:href="#DejaVuSans-2e" x="63.623047"/>
       <use xlink:href="#DejaVuSans-35" x="95.410156"/>
      </g>
     </g>
    </g>
    <g id="xtick_8">
     <g id="line2d_8">
      <g>
       <use xlink:href="#mcc7ad81766" x="483.994562" y="448.56" style="stroke: #000000; stroke-width: 0.8"/>
      </g>
     </g>
     <g id="text_8">
      <!-- 2.0 -->
      <g transform="translate(472.067218 466.957656)scale(0.15 -0.15)">
       <defs>
        <path id="DejaVuSans-32" d="M 1228 531 
L 3431 531 
L 3431 0 
L 469 0 
L 469 531 
Q 828 903 1448 1529 
Q 2069 2156 2228 2338 
Q 2531 2678 2651 2914 
Q 2772 3150 2772 3378 
Q 2772 3750 2511 3984 
Q 2250 4219 1831 4219 
Q 1534 4219 1204 4116 
Q 875 4013 500 3803 
L 500 4441 
Q 881 4594 1212 4672 
Q 1544 4750 1819 4750 
Q 2544 4750 2975 4387 
Q 3406 4025 3406 3419 
Q 3406 3131 3298 2873 
Q 3191 2616 2906 2266 
Q 2828 2175 2409 1742 
Q 1991 1309 1228 531 
z
" transform="scale(0.015625)"/>
       </defs>
       <use xlink:href="#DejaVuSans-32"/>
       <use xlink:href="#DejaVuSans-2e" x="63.623047"/>
       <use xlink:href="#DejaVuSans-30" x="95.410156"/>
      </g>
     </g>
    </g>
    <g id="text_9">
     <!-- PCA1 -->
     <g transform="translate(268.984375 489.274063)scale(0.2 -0.2)">
      <defs>
       <path id="DejaVuSans-50" d="M 1259 4147 
L 1259 2394 
L 2053 2394 
Q 2494 2394 2734 2622 
Q 2975 2850 2975 3272 
Q 2975 3691 2734 3919 
Q 2494 4147 2053 4147 
L 1259 4147 
z
M 628 4666 
L 2053 4666 
Q 2838 4666 3239 4311 
Q 3641 3956 3641 3272 
Q 3641 2581 3239 2228 
Q 2838 1875 2053 1875 
L 1259 1875 
L 1259 0 
L 628 0 
L 628 4666 
z
" transform="scale(0.015625)"/>
       <path id="DejaVuSans-43" d="M 4122 4306 
L 4122 3641 
Q 3803 3938 3442 4084 
Q 3081 4231 2675 4231 
Q 1875 4231 1450 3742 
Q 1025 3253 1025 2328 
Q 1025 1406 1450 917 
Q 1875 428 2675 428 
Q 3081 428 3442 575 
Q 3803 722 4122 1019 
L 4122 359 
Q 3791 134 3420 21 
Q 3050 -91 2638 -91 
Q 1578 -91 968 557 
Q 359 1206 359 2328 
Q 359 3453 968 4101 
Q 1578 4750 2638 4750 
Q 3056 4750 3426 4639 
Q 3797 4528 4122 4306 
z
" transform="scale(0.015625)"/>
       <path id="DejaVuSans-41" d="M 2188 4044 
L 1331 1722 
L 3047 1722 
L 2188 4044 
z
M 1831 4666 
L 2547 4666 
L 4325 0 
L 3669 0 
L 3244 1197 
L 1141 1197 
L 716 0 
L 50 0 
L 1831 4666 
z
" transform="scale(0.015625)"/>
      </defs>
      <use xlink:href="#DejaVuSans-50"/>
      <use xlink:href="#DejaVuSans-43" x="60.302734"/>
      <use xlink:href="#DejaVuSans-41" x="130.126953"/>
      <use xlink:href="#DejaVuSans-31" x="198.535156"/>
     </g>
    </g>
   </g>
   <g id="matplotlib.axis_2">
    <g id="ytick_1">
     <g id="line2d_9">
      <defs>
       <path id="mdf21e0a0c8" d="M 0 0 
L -3.5 0 
" style="stroke: #000000; stroke-width: 0.8"/>
      </defs>
      <g>
       <use xlink:href="#mdf21e0a0c8" x="72" y="441.128953" style="stroke: #000000; stroke-width: 0.8"/>
      </g>
     </g>
     <g id="text_10">
      <!-- −1.0 -->
      <g transform="translate(28.575781 446.827781)scale(0.15 -0.15)">
       <use xlink:href="#DejaVuSans-2212"/>
       <use xlink:href="#DejaVuSans-31" x="83.789062"/>
       <use xlink:href="#DejaVuSans-2e" x="147.412109"/>
       <use xlink:href="#DejaVuSans-30" x="179.199219"/>
      </g>
     </g>
    </g>
    <g id="ytick_2">
     <g id="line2d_10">
      <g>
       <use xlink:href="#mdf21e0a0c8" x="72" y="367.877617" style="stroke: #000000; stroke-width: 0.8"/>
      </g>
     </g>
     <g id="text_11">
      <!-- −0.5 -->
      <g transform="translate(28.575781 373.576445)scale(0.15 -0.15)">
       <use xlink:href="#DejaVuSans-2212"/>
       <use xlink:href="#DejaVuSans-30" x="83.789062"/>
       <use xlink:href="#DejaVuSans-2e" x="147.412109"/>
       <use xlink:href="#DejaVuSans-35" x="179.199219"/>
      </g>
     </g>
    </g>
    <g id="ytick_3">
     <g id="line2d_11">
      <g>
       <use xlink:href="#mdf21e0a0c8" x="72" y="294.626282" style="stroke: #000000; stroke-width: 0.8"/>
      </g>
     </g>
     <g id="text_12">
      <!-- 0.0 -->
      <g transform="translate(41.145313 300.32511)scale(0.15 -0.15)">
       <use xlink:href="#DejaVuSans-30"/>
       <use xlink:href="#DejaVuSans-2e" x="63.623047"/>
       <use xlink:href="#DejaVuSans-30" x="95.410156"/>
      </g>
     </g>
    </g>
    <g id="ytick_4">
     <g id="line2d_12">
      <g>
       <use xlink:href="#mdf21e0a0c8" x="72" y="221.374946" style="stroke: #000000; stroke-width: 0.8"/>
      </g>
     </g>
     <g id="text_13">
      <!-- 0.5 -->
      <g transform="translate(41.145313 227.073774)scale(0.15 -0.15)">
       <use xlink:href="#DejaVuSans-30"/>
       <use xlink:href="#DejaVuSans-2e" x="63.623047"/>
       <use xlink:href="#DejaVuSans-35" x="95.410156"/>
      </g>
     </g>
    </g>
    <g id="ytick_5">
     <g id="line2d_13">
      <g>
       <use xlink:href="#mdf21e0a0c8" x="72" y="148.12361" style="stroke: #000000; stroke-width: 0.8"/>
      </g>
     </g>
     <g id="text_14">
      <!-- 1.0 -->
      <g transform="translate(41.145313 153.822438)scale(0.15 -0.15)">
       <use xlink:href="#DejaVuSans-31"/>
       <use xlink:href="#DejaVuSans-2e" x="63.623047"/>
       <use xlink:href="#DejaVuSans-30" x="95.410156"/>
      </g>
     </g>
    </g>
    <g id="ytick_6">
     <g id="line2d_14">
      <g>
       <use xlink:href="#mdf21e0a0c8" x="72" y="74.872274" style="stroke: #000000; stroke-width: 0.8"/>
      </g>
     </g>
     <g id="text_15">
      <!-- 1.5 -->
      <g transform="translate(41.145313 80.571103)scale(0.15 -0.15)">
       <use xlink:href="#DejaVuSans-31"/>
       <use xlink:href="#DejaVuSans-2e" x="63.623047"/>
       <use xlink:href="#DejaVuSans-35" x="95.410156"/>
      </g>
     </g>
    </g>
    <g id="text_16">
     <!-- PCA2 -->
     <g transform="translate(20.416406 280.735625)rotate(-90)scale(0.2 -0.2)">
      <use xlink:href="#DejaVuSans-50"/>
      <use xlink:href="#DejaVuSans-43" x="60.302734"/>
      <use xlink:href="#DejaVuSans-41" x="130.126953"/>
      <use xlink:href="#DejaVuSans-32" x="198.535156"/>
     </g>
    </g>
   </g>
   <g id="patch_3">
    <path d="M 72 448.56 
L 72 60.48 
" style="fill: none; stroke: #000000; stroke-width: 0.8; stroke-linejoin: miter; stroke-linecap: square"/>
   </g>
   <g id="patch_4">
    <path d="M 518.4 448.56 
L 518.4 60.48 
" style="fill: none; stroke: #000000; stroke-width: 0.8; stroke-linejoin: miter; stroke-linecap: square"/>
   </g>
   <g id="patch_5">
    <path d="M 72 448.56 
L 518.4 448.56 
" style="fill: none; stroke: #000000; stroke-width: 0.8; stroke-linejoin: miter; stroke-linecap: square"/>
   </g>
   <g id="patch_6">
    <path d="M 72 60.48 
L 518.4 60.48 
" style="fill: none; stroke: #000000; stroke-width: 0.8; stroke-linejoin: miter; stroke-linecap: square"/>
   </g>
   <g id="legend_1">
    <g id="patch_7">
     <path d="M 84.096 125.0316 
L 235.2879 125.0316 
Q 238.7439 125.0316 238.7439 121.5756 
L 238.7439 72.576 
Q 238.7439 69.12 235.2879 69.12 
L 84.096 69.12 
Q 80.64 69.12 80.64 72.576 
L 80.64 121.5756 
Q 80.64 125.0316 84.096 125.0316 
z
" style="fill: #ffffff; opacity: 0.8; stroke: #cccccc; stroke-linejoin: miter"/>
    </g>
    <g id="PathCollection_3">
     <g>
      <use xlink:href="#m454bc00834" x="104.832" y="84.6261" style="fill: #0064d2; stroke: #0064d2"/>
     </g>
    </g>
    <g id="text_17">
     <!-- Nongelator -->
     <g transform="translate(135.936 89.1621)scale(0.1728 -0.1728)">
      <defs>
       <path id="DejaVuSans-4e" d="M 628 4666 
L 1478 4666 
L 3547 763 
L 3547 4666 
L 4159 4666 
L 4159 0 
L 3309 0 
L 1241 3903 
L 1241 0 
L 628 0 
L 628 4666 
z
" transform="scale(0.015625)"/>
       <path id="DejaVuSans-6f" d="M 1959 3097 
Q 1497 3097 1228 2736 
Q 959 2375 959 1747 
Q 959 1119 1226 758 
Q 1494 397 1959 397 
Q 2419 397 2687 759 
Q 2956 1122 2956 1747 
Q 2956 2369 2687 2733 
Q 2419 3097 1959 3097 
z
M 1959 3584 
Q 2709 3584 3137 3096 
Q 3566 2609 3566 1747 
Q 3566 888 3137 398 
Q 2709 -91 1959 -91 
Q 1206 -91 779 398 
Q 353 888 353 1747 
Q 353 2609 779 3096 
Q 1206 3584 1959 3584 
z
" transform="scale(0.015625)"/>
       <path id="DejaVuSans-6e" d="M 3513 2113 
L 3513 0 
L 2938 0 
L 2938 2094 
Q 2938 2591 2744 2837 
Q 2550 3084 2163 3084 
Q 1697 3084 1428 2787 
Q 1159 2491 1159 1978 
L 1159 0 
L 581 0 
L 581 3500 
L 1159 3500 
L 1159 2956 
Q 1366 3272 1645 3428 
Q 1925 3584 2291 3584 
Q 2894 3584 3203 3211 
Q 3513 2838 3513 2113 
z
" transform="scale(0.015625)"/>
       <path id="DejaVuSans-67" d="M 2906 1791 
Q 2906 2416 2648 2759 
Q 2391 3103 1925 3103 
Q 1463 3103 1205 2759 
Q 947 2416 947 1791 
Q 947 1169 1205 825 
Q 1463 481 1925 481 
Q 2391 481 2648 825 
Q 2906 1169 2906 1791 
z
M 3481 434 
Q 3481 -459 3084 -895 
Q 2688 -1331 1869 -1331 
Q 1566 -1331 1297 -1286 
Q 1028 -1241 775 -1147 
L 775 -588 
Q 1028 -725 1275 -790 
Q 1522 -856 1778 -856 
Q 2344 -856 2625 -561 
Q 2906 -266 2906 331 
L 2906 616 
Q 2728 306 2450 153 
Q 2172 0 1784 0 
Q 1141 0 747 490 
Q 353 981 353 1791 
Q 353 2603 747 3093 
Q 1141 3584 1784 3584 
Q 2172 3584 2450 3431 
Q 2728 3278 2906 2969 
L 2906 3500 
L 3481 3500 
L 3481 434 
z
" transform="scale(0.015625)"/>
       <path id="DejaVuSans-65" d="M 3597 1894 
L 3597 1613 
L 953 1613 
Q 991 1019 1311 708 
Q 1631 397 2203 397 
Q 2534 397 2845 478 
Q 3156 559 3463 722 
L 3463 178 
Q 3153 47 2828 -22 
Q 2503 -91 2169 -91 
Q 1331 -91 842 396 
Q 353 884 353 1716 
Q 353 2575 817 3079 
Q 1281 3584 2069 3584 
Q 2775 3584 3186 3129 
Q 3597 2675 3597 1894 
z
M 3022 2063 
Q 3016 2534 2758 2815 
Q 2500 3097 2075 3097 
Q 1594 3097 1305 2825 
Q 1016 2553 972 2059 
L 3022 2063 
z
" transform="scale(0.015625)"/>
       <path id="DejaVuSans-6c" d="M 603 4863 
L 1178 4863 
L 1178 0 
L 603 0 
L 603 4863 
z
" transform="scale(0.015625)"/>
       <path id="DejaVuSans-61" d="M 2194 1759 
Q 1497 1759 1228 1600 
Q 959 1441 959 1056 
Q 959 750 1161 570 
Q 1363 391 1709 391 
Q 2188 391 2477 730 
Q 2766 1069 2766 1631 
L 2766 1759 
L 2194 1759 
z
M 3341 1997 
L 3341 0 
L 2766 0 
L 2766 531 
Q 2569 213 2275 61 
Q 1981 -91 1556 -91 
Q 1019 -91 701 211 
Q 384 513 384 1019 
Q 384 1609 779 1909 
Q 1175 2209 1959 2209 
L 2766 2209 
L 2766 2266 
Q 2766 2663 2505 2880 
Q 2244 3097 1772 3097 
Q 1472 3097 1187 3025 
Q 903 2953 641 2809 
L 641 3341 
Q 956 3463 1253 3523 
Q 1550 3584 1831 3584 
Q 2591 3584 2966 3190 
Q 3341 2797 3341 1997 
z
" transform="scale(0.015625)"/>
       <path id="DejaVuSans-74" d="M 1172 4494 
L 1172 3500 
L 2356 3500 
L 2356 3053 
L 1172 3053 
L 1172 1153 
Q 1172 725 1289 603 
Q 1406 481 1766 481 
L 2356 481 
L 2356 0 
L 1766 0 
Q 1100 0 847 248 
Q 594 497 594 1153 
L 594 3053 
L 172 3053 
L 172 3500 
L 594 3500 
L 594 4494 
L 1172 4494 
z
" transform="scale(0.015625)"/>
       <path id="DejaVuSans-72" d="M 2631 2963 
Q 2534 3019 2420 3045 
Q 2306 3072 2169 3072 
Q 1681 3072 1420 2755 
Q 1159 2438 1159 1844 
L 1159 0 
L 581 0 
L 581 3500 
L 1159 3500 
L 1159 2956 
Q 1341 3275 1631 3429 
Q 1922 3584 2338 3584 
Q 2397 3584 2469 3576 
Q 2541 3569 2628 3553 
L 2631 2963 
z
" transform="scale(0.015625)"/>
      </defs>
      <use xlink:href="#DejaVuSans-4e"/>
      <use xlink:href="#DejaVuSans-6f" x="74.804688"/>
      <use xlink:href="#DejaVuSans-6e" x="135.986328"/>
      <use xlink:href="#DejaVuSans-67" x="199.365234"/>
      <use xlink:href="#DejaVuSans-65" x="262.841797"/>
      <use xlink:href="#DejaVuSans-6c" x="324.365234"/>
      <use xlink:href="#DejaVuSans-61" x="352.148438"/>
      <use xlink:href="#DejaVuSans-74" x="413.427734"/>
      <use xlink:href="#DejaVuSans-6f" x="452.636719"/>
      <use xlink:href="#DejaVuSans-72" x="513.818359"/>
     </g>
    </g>
    <g id="PathCollection_4">
     <g>
      <use xlink:href="#ma149123cb4" x="104.832" y="109.9899" style="fill: #e53238; stroke: #e53238"/>
     </g>
    </g>
    <g id="text_18">
     <!-- Gelator -->
     <g transform="translate(135.936 114.5259)scale(0.1728 -0.1728)">
      <defs>
       <path id="DejaVuSans-47" d="M 3809 666 
L 3809 1919 
L 2778 1919 
L 2778 2438 
L 4434 2438 
L 4434 434 
Q 4069 175 3628 42 
Q 3188 -91 2688 -91 
Q 1594 -91 976 548 
Q 359 1188 359 2328 
Q 359 3472 976 4111 
Q 1594 4750 2688 4750 
Q 3144 4750 3555 4637 
Q 3966 4525 4313 4306 
L 4313 3634 
Q 3963 3931 3569 4081 
Q 3175 4231 2741 4231 
Q 1884 4231 1454 3753 
Q 1025 3275 1025 2328 
Q 1025 1384 1454 906 
Q 1884 428 2741 428 
Q 3075 428 3337 486 
Q 3600 544 3809 666 
z
" transform="scale(0.015625)"/>
      </defs>
      <use xlink:href="#DejaVuSans-47"/>
      <use xlink:href="#DejaVuSans-65" x="77.490234"/>
      <use xlink:href="#DejaVuSans-6c" x="139.013672"/>
      <use xlink:href="#DejaVuSans-61" x="166.796875"/>
      <use xlink:href="#DejaVuSans-74" x="228.076172"/>
      <use xlink:href="#DejaVuSans-6f" x="267.285156"/>
      <use xlink:href="#DejaVuSans-72" x="328.466797"/>
     </g>
    </g>
   </g>
  </g>
 </g>
 <defs>
  <clipPath id="p1e19c4390d">
   <rect x="72" y="60.48" width="446.4" height="388.08"/>
  </clipPath>
 </defs>
</svg>
